<?xml version="1.0" encoding="UTF-8"?>
<svg version="1.1" xmlns="http://www.w3.org/2000/svg" width="180" height="60">
<path d="M0 0 C-0.22961426 0.51868652 -0.45922852 1.03737305 -0.69580078 1.57177734 C-1.84320885 4.17096212 -2.98480903 6.77264083 -4.125 9.375 C-4.56078369 10.36838379 -4.99656738 11.36176758 -5.44555664 12.38525391 C-8.28439354 18.9084341 -11.01702946 25.46428035 -13.67578125 32.0625 C-13.98739197 32.83260406 -14.29900269 33.60270813 -14.62005615 34.39614868 C-16.5011797 39.04494802 -16.5011797 39.04494802 -18.35968018 43.70281982 C-19.22895815 45.89698561 -20.11132842 48.08548042 -20.99609375 50.2734375 C-21.25513992 50.93907715 -21.5141861 51.6047168 -21.78108215 52.29052734 C-22.43755159 53.89690906 -23.21008042 55.45486525 -24 57 C-24.99 57.33 -25.98 57.66 -27 58 C-29.234375 56.55859375 -29.234375 56.55859375 -31.75 54.4375 C-32.62914062 53.70402344 -33.50828125 52.97054687 -34.4140625 52.21484375 C-35.26742187 51.48394531 -36.12078125 50.75304688 -37 50 C-37.72960938 49.38253906 -38.45921875 48.76507813 -39.2109375 48.12890625 C-40.81609643 46.76288324 -42.40949024 45.38305197 -44 44 C-47.08510827 45.19976433 -50.05047042 46.50002556 -53 48 C-52.94714844 47.23816406 -52.89429687 46.47632813 -52.83984375 45.69140625 C-52.95888555 41.87730698 -53.32871925 39.46312653 -55 36 C-58.32527023 33.35967224 -62.0969374 31.64400217 -65.96655273 29.94360352 C-66.72137939 29.61158936 -67.47620605 29.2795752 -68.25390625 28.9375 C-68.94814697 28.65777344 -69.6423877 28.37804687 -70.35766602 28.08984375 C-72 27 -72 27 -72.73413086 24.87890625 C-72.82186768 24.25886719 -72.90960449 23.63882812 -73 23 C-63.68221323 19.62270224 -54.34646478 16.29694839 -45 13 C-44.14621765 12.69874207 -43.2924353 12.39748413 -42.41278076 12.08709717 C-36.8719925 10.13464325 -31.32611459 8.19752096 -25.77462769 6.2756958 C-23.92528799 5.63370832 -22.0772371 4.98799608 -20.23049927 4.33856201 C-17.61541176 3.41993089 -14.99595125 2.51502312 -12.375 1.61328125 C-11.58757919 1.33358994 -10.80015839 1.05389862 -9.98887634 0.76573181 C-6.21405514 -0.51692899 -3.80811828 -1.21595888 0 0 Z " fill="#31A0CD" transform="translate(75,1)"/>
<path d="M0 0 C-1.49808236 3.91739928 -3.62637023 5.35559866 -7.125 7.5625 C-8.20136719 8.25601562 -9.27773438 8.94953125 -10.38671875 9.6640625 C-10.9698584 10.03821289 -11.55299805 10.41236328 -12.15380859 10.79785156 C-15.45739864 12.94898584 -18.69411914 15.19705791 -21.9375 17.4375 C-22.60942383 17.89946777 -23.28134766 18.36143555 -23.97363281 18.83740234 C-27.2747151 21.10878196 -30.56546918 23.39339318 -33.83984375 25.703125 C-34.43740479 26.12279541 -35.03496582 26.54246582 -35.65063477 26.97485352 C-37.27747157 28.11891389 -38.90057707 29.26827482 -40.5234375 30.41796875 C-43 32 -43 32 -45 32 C-45 34.97 -45 37.94 -45 41 C-45.33 41 -45.66 41 -46 41 C-45.9896875 39.94167969 -45.979375 38.88335937 -45.96875 37.79296875 C-46.58652364 34.06974816 -46.58652364 34.06974816 -48.66015625 32.64306641 C-50.90278111 31.42211618 -53.16437012 30.34447863 -55.5 29.3125 C-57.07871691 28.59200319 -58.65198957 27.85942098 -60.21875 27.11328125 C-60.91935547 26.80173096 -61.61996094 26.49018066 -62.34179688 26.16918945 C-64 25 -64 25 -64.73632812 22.86791992 C-64.82333984 22.25150635 -64.91035156 21.63509277 -65 21 C-50.10930573 15.62325591 -35.19256647 10.31814495 -20.23428345 5.13220215 C-18.66010384 4.58527405 -17.08683846 4.03570754 -15.51449585 3.48352051 C-13.30117497 2.70699464 -11.0847223 1.94017578 -8.8671875 1.17578125 C-8.20071701 0.93984756 -7.53424652 0.70391388 -6.84757996 0.46083069 C-2.22841678 -1.11420839 -2.22841678 -1.11420839 0 0 Z " fill="#319CC8" transform="translate(67,3)"/>
<path d="M0 0 C3.85544798 1.99657127 5.59805092 3.39707638 8 7 C8.26655603 10.68380428 8.08702669 14.30136581 8 18 C-0.415 18.495 -0.415 18.495 -9 19 C-8.34 19.99 -7.68 20.98 -7 22 C-4.96497554 22.40251804 -4.96497554 22.40251804 -2.6875 22.25 C-1.88828125 22.22421875 -1.0890625 22.1984375 -0.265625 22.171875 C2.21879552 21.98340172 4.58641295 21.62286117 7 21 C7 23.31 7 25.62 7 28 C1.98526475 30.99208547 -3.34076695 30.59258985 -9 30 C-13.04380735 28.75575159 -15.44284239 26.77283152 -17.9375 23.3125 C-19.77273328 17.59089036 -19.56985475 12.93117443 -17.875 7.1875 C-13.65460067 0.01282114 -7.82917559 -1.28367976 0 0 Z M-8 7 C-8.33 8.32 -8.66 9.64 -9 11 C-6.03 11 -3.06 11 0 11 C-0.66 9.68 -1.32 8.36 -2 7 C-3.98 7 -5.96 7 -8 7 Z " fill="#2890BB" transform="translate(117,24)"/>
<path d="M0 0 C2.53839263 2.2108581 3.8608521 3.82879623 4.16455078 7.23120117 C4.15407715 8.22095947 4.14360352 9.21071777 4.1328125 10.23046875 C4.12636719 11.30361328 4.11992188 12.37675781 4.11328125 13.48242188 C4.09652344 14.60197266 4.07976562 15.72152344 4.0625 16.875 C4.05347656 18.00615234 4.04445313 19.13730469 4.03515625 20.30273438 C4.01156862 23.09786828 3.978653 25.89257845 3.9375 28.6875 C1.0625 28.875 1.0625 28.875 -2.0625 28.6875 C-2.7225 27.6975 -3.3825 26.7075 -4.0625 25.6875 C-4.536875 26.1825 -5.01125 26.6775 -5.5 27.1875 C-9.30589439 29.41534062 -12.76013904 29.48366644 -17.0625 28.6875 C-20.11317422 26.69522296 -21.65676669 25.35067126 -22.53515625 21.75 C-22.83544097 17.68460686 -22.34918914 16.0617886 -19.8125 12.75 C-14.96629921 9.1153494 -10.95519662 9.58928839 -5.0625 9.6875 C-5.3925 8.6975 -5.7225 7.7075 -6.0625 6.6875 C-11.64080016 6.56280901 -11.64080016 6.56280901 -17.0625 7.6875 C-20.0625 2.9375 -20.0625 2.9375 -20.0625 0.6875 C-13.76692777 -2.03490961 -6.36697927 -2.7287054 0 0 Z M-13.0625 17.6875 C-13.0625 19.0075 -13.0625 20.3275 -13.0625 21.6875 C-10.14597826 21.85431109 -10.14597826 21.85431109 -7.0625 21.6875 C-6.4025 21.0275 -5.7425 20.3675 -5.0625 19.6875 C-5.0625 18.3675 -5.0625 17.0475 -5.0625 15.6875 C-9.55554582 15.26246554 -9.55554582 15.26246554 -13.0625 17.6875 Z " fill="#2994C1" transform="translate(89.0625,25.3125)"/>
<path d="M0 0 C2.9488853 2.08579692 3.99170579 3.57217595 5.5625 6.8125 C6.30474107 12.52976227 7.00258568 19.48105917 3.8125 24.5625 C0.16959211 28.20540789 -2.68647423 29.11570692 -7.8125 29.1875 C-12.81348693 29.0741443 -15.74272075 28.41490977 -19.4375 24.8125 C-22.30706673 19.83858433 -23.23401871 15.43238204 -22.4375 9.8125 C-21.1868593 5.64369765 -20.02930868 3.37543996 -16.875 0.375 C-11.13370196 -2.23468093 -5.91825774 -2.04448904 0 0 Z M-12.4375 7.8125 C-13.77813213 12.13137187 -13.92169677 15.78095037 -12 19.875 C-11.484375 20.514375 -10.96875 21.15375 -10.4375 21.8125 C-7.49022465 21.71080839 -7.49022465 21.71080839 -4.4375 20.8125 C-2.3249353 17.78142891 -2.32695716 15.18855572 -2.625 11.625 C-3.02218174 7.58515425 -3.02218174 7.58515425 -6.4375 5.8125 C-9.62240007 5.5351499 -9.62240007 5.5351499 -12.4375 7.8125 Z " fill="#2996C4" transform="translate(174.4375,25.1875)"/>
<path d="M0 0 C2.31 0 4.62 0 7 0 C7.66 0.99 8.32 1.98 9 3 C9.515625 2.505 10.03125 2.01 10.5625 1.5 C13.80680017 -0.49649241 16.26217334 -0.21564385 20 0 C20 2.64 20 5.28 20 8 C17.98177083 8.42317708 15.96354167 8.84635417 13.9453125 9.26953125 C11.62953451 9.92308838 11.62953451 9.92308838 10 13 C9.6373883 14.92744369 9.6373883 14.92744369 9.5859375 17.01171875 C9.52792969 18.14770508 9.52792969 18.14770508 9.46875 19.30664062 C9.42234375 20.48516602 9.42234375 20.48516602 9.375 21.6875 C9.31699219 22.88342773 9.31699219 22.88342773 9.2578125 24.10351562 C9.16367506 26.06863475 9.08075368 28.0342854 9 30 C6.03 30 3.06 30 0 30 C0 20.1 0 10.2 0 0 Z " fill="#278DB8" transform="translate(130,24)"/>
<path d="M0 0 C0.66 0.33 1.32 0.66 2 1 C-3.70707148 6.32859205 -9.41270339 11.60350302 -15.5 16.5 C-22.29872513 21.97262736 -28.82698651 27.82698651 -35 34 C-34.6814823 36.10820797 -34.6814823 36.10820797 -34 38 C-38.75 42 -38.75 42 -41 42 C-41.95997687 37.06500778 -42.22509841 32.90551958 -41 28 C-37.18547269 24.19620272 -32.88646311 21.81820503 -28.18603516 19.24609375 C-24.53075056 17.16249172 -21.12674598 14.73051394 -17.6875 12.3125 C-16.35869556 11.39493098 -15.02928451 10.47823972 -13.69921875 9.5625 C-9.1195771 6.39388308 -4.55299346 3.20679588 0 0 Z " fill="#ADB1B3" transform="translate(63,7)"/>
<path d="M0 0 C0.66 0.33 1.32 0.66 2 1 C1.01 2.485 1.01 2.485 0 4 C-0.24107326 6.28648848 -0.24107326 6.28648848 -0.125 8.6875 C-0.10695313 9.49574219 -0.08890625 10.30398437 -0.0703125 11.13671875 C-0.04710938 11.75160156 -0.02390625 12.36648437 0 13 C-0.99 12.67 -1.98 12.34 -3 12 C-3.36923077 4.61538462 -3.36923077 4.61538462 -1.5 1.5 C-1.005 1.005 -0.51 0.51 0 0 Z " fill="#237EA4" transform="translate(70,37)"/>
<path d="M0 0 C1.32 0.33 2.64 0.66 4 1 C2.02 3.31 0.04 5.62 -2 8 C-2.33 6.68 -2.66 5.36 -3 4 C-1.5625 1.75 -1.5625 1.75 0 0 Z " fill="#278DB8" transform="translate(157,26)"/>
<path d="M0 0 C-1.65 1.65 -3.3 3.3 -5 5 C-6.32 4.34 -7.64 3.68 -9 3 C-5.92807025 0.26939578 -4.09590633 -0.34132553 0 0 Z " fill="#57ABCD" transform="translate(72,2)"/>
<path d="M0 0 C-0.99 1.98 -1.98 3.96 -3 6 C-3.103125 5.38125 -3.20625 4.7625 -3.3125 4.125 C-3.87525373 1.63473516 -3.87525373 1.63473516 -7 0 C-3.86650268 -1.04449911 -3.01031744 -0.93423645 0 0 Z " fill="#226A87" transform="translate(75,1)"/>
</svg>
