<svg width="104" height="52" viewBox="0 0 104 52" fill="none" xmlns="http://www.w3.org/2000/svg">
<path d="M53.0173 23.4337H48.8814C48.1176 23.4337 47.7862 23.1022 47.7862 22.3385V21.8773C47.7862 21.1135 48.1176 20.7821 48.8814 20.7821H55.4815C55.9427 20.7821 56.3174 20.4074 56.3174 19.9463V17.8279C56.3174 17.3667 55.9427 16.9921 55.4815 16.9921H47.9591C46.273 16.9921 45.0337 17.3812 44.2555 18.1737C43.4774 18.9519 43.0739 20.2057 43.0739 21.8773V22.569C43.0739 24.2551 43.4629 25.4944 44.2555 26.2726C45.0337 27.0508 46.2875 27.4543 47.9591 27.4543H52.7003C52.8444 27.4543 52.9597 27.5696 52.9597 27.7137V29.1115C52.9597 29.3565 52.8876 29.5583 52.7435 29.688C52.585 29.8321 52.3832 29.9041 52.1094 29.9041H44.1258C43.6647 29.9041 43.29 30.2788 43.29 30.74V32.6566C43.29 33.0745 43.5926 33.4348 44.0106 33.4924C44.9761 33.6365 45.9416 33.723 46.9215 33.723H53.0317C54.6025 33.723 55.7842 33.3483 56.5479 32.5989C57.3117 31.8496 57.6864 30.6823 57.6864 29.1404V28.0019C57.6864 26.4455 57.2973 25.2927 56.5479 24.5433C55.7698 23.8084 54.5881 23.4337 53.0173 23.4337Z" fill="#1C1C1C"/>
<path d="M76.8384 16.9921H73.351C73.0484 16.9921 72.7601 17.165 72.616 17.4388L68.6531 24.7595C68.581 24.8892 68.4657 24.9036 68.4225 24.9036C68.3793 24.9036 68.264 24.8892 68.1919 24.7595L64.229 17.4388C64.0849 17.165 63.7966 16.9921 63.494 16.9921H60.0066C59.5455 16.9921 59.1708 17.3667 59.1708 17.8279V32.8151C59.1708 33.2762 59.5455 33.6509 60.0066 33.6509H63.0473C63.5084 33.6509 63.8831 33.2762 63.8831 32.8151V26.5176C63.8831 26.3303 64.0272 26.2726 64.0849 26.2582C64.1281 26.2438 64.2866 26.215 64.3875 26.3879L66.4194 30.005C66.5635 30.2644 66.8517 30.4373 67.1543 30.4373H69.7195C70.0221 30.4373 70.2959 30.2788 70.4544 30.005L72.4863 26.3879C72.5728 26.2294 72.7313 26.2582 72.789 26.2582C72.8466 26.2582 72.9907 26.3158 72.9907 26.5176V32.8151C72.9907 33.2762 73.3654 33.6509 73.8265 33.6509H76.8672C77.3284 33.6509 77.703 33.2762 77.703 32.8151V17.8279C77.6742 17.3812 77.2995 16.9921 76.8384 16.9921Z" fill="#1C1C1C"/>
<path d="M42.4974 32.4692L36.5889 17.5396C36.5025 17.1361 35.9837 16.9055 35.7099 16.9055H31.7037C31.3722 16.9055 31.1273 17.1505 30.9399 17.3378L25.0747 32.4403C24.945 32.6997 24.9594 32.988 25.118 33.2329C25.2909 33.5067 25.6079 33.6797 25.925 33.6797H29.4844C29.8159 33.6797 30.0609 33.4347 30.2482 33.2473L31.2425 30.8552C31.2425 30.8696 31.2425 30.8696 31.257 30.8552L36.2287 30.8407C36.2575 30.8552 36.3151 30.8984 36.3584 30.956L37.1942 33.0456C37.2807 33.4635 37.785 33.6797 38.0733 33.6797H41.6327C41.9498 33.6797 42.2668 33.5067 42.4397 33.2329C42.5982 32.988 42.6126 32.6997 42.4974 32.4692ZM34.9461 26.921C34.9461 26.9642 34.9317 26.9787 34.9173 27.0075H32.5539L33.7788 23.448L34.9461 26.921Z" fill="#1C1C1C"/>
<path d="M91.2474 16.852C82.8027 10.7995 70.6832 5.77012 57.0938 2.6718C43.6053 -0.224763 30.4483 -0.786784 20.0437 1.08662C8.78887 3.13295 1.77082 7.94615 0.286513 14.6328C-0.49167 18.1058 0.315334 21.7661 2.70752 25.5129C9.17797 35.6869 25.9809 44.8378 46.5595 49.3916C50.6954 50.2706 55.1484 51.0056 60.5668 51.6973C60.6821 51.7117 60.7974 51.7261 60.9271 51.7261C61.907 51.7261 62.8005 51.1497 63.276 50.1986C63.6507 49.4492 63.6507 48.6422 63.276 47.9073C62.8725 47.1003 62.0655 46.5094 61.0856 46.3365C60.1345 46.2356 59.1834 46.1203 58.2179 46.005C67.3399 45.6159 75.6981 44.0452 82.0821 41.4656C90.2242 38.3097 95.1527 33.9144 96.2191 28.9427C97.5593 30.9314 98.251 32.848 98.251 34.6061C98.251 35.7734 99.058 36.7965 100.269 37.1424L100.297 37.1568C101.104 37.3153 101.955 37.0992 102.632 36.5516C103.28 36.0184 103.655 35.269 103.655 34.462C103.511 28.5968 99.2165 22.501 91.2474 16.852ZM21.5712 10.7563C13.6021 13.8402 8.70241 18.1202 7.4919 22.9478C7.44867 22.8901 7.40544 22.8325 7.37662 22.7748C5.76261 20.2386 5.18618 17.904 5.64732 15.8144C6.62726 11.4912 12.3772 7.98938 21.0525 6.44743C24.5543 5.77012 28.5893 5.45309 33.3737 5.45309C37.2934 5.45309 41.4293 5.72689 45.6084 6.26009C36.5008 6.69241 28.1281 8.21996 21.5712 10.7563ZM12.5933 25.2391C12.5933 21.8237 16.5419 18.3363 23.4446 15.6559C30.4915 12.9755 39.8585 11.5056 49.8164 11.5056H52.2518C63.0022 11.7938 73.133 13.7681 80.7851 17.097C87.5438 20.0512 91.3483 23.6971 91.2186 27.0981C91.0889 30.4702 87.2268 33.8279 80.3816 36.5516C72.3981 39.5058 62.152 40.9901 51.5601 40.7019C28.4164 40.1398 12.4492 32.0986 12.5933 25.2391Z" fill="#1C1C1C"/>
<path d="M94.3743 38.353C85.8143 45.9619 74.7036 46.5239 68.8816 46.178C68.1323 46.0916 67.3973 46.2933 66.8353 46.7545C66.2877 47.1868 65.9418 47.8209 65.8698 48.4982C65.7112 49.2908 65.8842 50.0689 66.3597 50.7174C66.8353 51.3515 67.5702 51.7694 68.3772 51.8559C69.5589 52 71.1729 52 72.8878 52C78.6089 51.8703 89.5035 50.4724 98.222 42.5177C99.3893 41.3504 99.3893 39.5347 98.222 38.3674C97.2132 37.373 95.5272 37.3586 94.3743 38.353Z" fill="#1C1C1C"/>
</svg>
