<svg viewBox="0 0 106 106" xmlns:xlink="http://www.w3.org/1999/xlink" xmlns="http://www.w3.org/2000/svg" width="106" height="106" fill="none" id="svg-787949069_960"><rect width="106" height="106" rx="12" fill="#000"></rect><g clip-path="url(#svg-787949069_960_clip0_625_9)" fill="#FFFFFF"><path d="M81.814 68.067c-4.086-1.551-8.025-3.003-11.913-4.573-.572-.231-1.078-.943-1.353-1.552-4.812-10.607-9.588-21.233-14.37-31.855-.24-.528-.514-1.038-.954-1.93-1.79 3.944-3.43 7.52-5.044 11.11a5594.59 5594.59 0 0 0-9.998 22.396c-.503 1.134-1.203 1.735-2.436 2.164-3.667 1.27-7.247 2.795-11.05 4.292 1.492-3.367 2.948-6.683 4.43-9.988 6.019-13.41 12.074-26.804 18.046-40.24.594-1.338 1.302-1.822 2.74-1.745 2.314.12 4.643.102 6.961.01 1.221-.047 1.823.36 2.33 1.497 6.201 13.93 12.459 27.839 18.705 41.747 1.295 2.883 2.597 5.766 3.906 8.671v-.004Z" fill="#FFFFFF"></path><path d="M19.806 79.052c18.446-15.756 47.843-16.123 66.49-.359l-6.47 6.562c-3.194-1.71-6.286-3.734-9.65-5.102-14.601-5.95-28.554-4.43-41.662 4.284-1.512 1.005-2.29.95-3.46-.334-1.595-1.753-3.414-3.305-5.248-5.047v-.004Z" fill="#FFFFFF"></path></g></svg>