<?xml version="1.0" encoding="UTF-8"?>
<svg version="1.1" xmlns="http://www.w3.org/2000/svg" width="384" height="97">
<path d="M0 0 C3.48805691 1.98102187 6.19713391 4.39426782 8 8 C13.78262322 8.52031128 13.78262322 8.52031128 18.8125 6.0625 C19.534375 5.381875 20.25625 4.70125 21 4 C21.99 3.67 22.98 3.34 24 3 C24.45503906 2.49339844 24.91007812 1.98679688 25.37890625 1.46484375 C28.13023218 -1.02129414 31.07864489 -0.46246672 34.625 -0.359375 C37 0 37 0 39.4375 1.8125 C39.953125 2.534375 40.46875 3.25625 41 4 C43.28810019 6.74032058 44.83342428 7.45592497 48.375 7.8125 C52.11052503 8.10964404 54.69443431 7.94445041 58 6 C59.61156421 4.5743855 60.92195466 3.09647936 62.2734375 1.42578125 C64.58190655 -0.48053369 66.03832067 -0.40144357 69 -0.375 C69.86625 -0.38273437 70.7325 -0.39046875 71.625 -0.3984375 C74.46977567 0.07881105 75.23849403 0.7656414 77 3 C80.29232622 7.8914561 81.77087359 10.94313605 81 17 C79.39560794 21.09119976 77.69161437 24.53892376 74 27 C70.60863449 27.49643344 67.37598038 27.62559903 64 27 C62.27734375 25.5703125 62.27734375 25.5703125 61 24 C57.64975733 20.19290606 53.81027997 19.03162167 48.9375 18.0625 C47.638125 18.041875 46.33875 18.02125 45 18 C42.63046953 20.12827495 42.63046953 20.12827495 41 23 C39.375 25.3125 39.375 25.3125 37 27 C33.6103297 27.50258703 30.37478923 27.62537831 27 27 C25.3125 25.53515625 25.3125 25.53515625 24 24 C22.67532254 23.3162955 21.34136367 22.65035814 20 22 C19.443125 21.46375 18.88625 20.9275 18.3125 20.375 C14.72049377 18.23921251 11.0809221 18.76456219 7 19 C6.56494141 19.92039062 6.56494141 19.92039062 6.12109375 20.859375 C4.47390829 24.00452355 3.11455899 25.22025201 0 27 C-4.91324194 27.72896765 -9.36645693 28.11559039 -13.5625 25.25 C-17.27105772 19.44530095 -17.6545412 14.85284805 -17 8 C-13.89113551 -0.43834647 -8.29651236 -1.36349367 0 0 Z M70 1 C74 2 74 2 74 2 Z " fill="#030920" transform="translate(17,35)"/>
<path d="M0 0 C0.73476562 -0.01417969 1.46953125 -0.02835938 2.2265625 -0.04296875 C4.69484316 0.22181045 6.27371792 0.87993364 8.375 2.1875 C8.87 3.1775 8.87 3.1775 9.375 4.1875 C10.303125 4.496875 10.303125 4.496875 11.25 4.8125 C15.43901169 7.52303698 16.33238398 13.50981733 17.375 18.1875 C17.91876391 25.25643088 16.37228061 31.010872 11.875 36.5 C11.05 37.386875 10.225 38.27375 9.375 39.1875 C8.69280396 40.00408081 8.69280396 40.00408081 7.99682617 40.8371582 C5.86879234 42.60897141 4.66669399 42.53565491 1.92578125 42.48046875 C1.07822266 42.47080078 0.23066406 42.46113281 -0.64257812 42.45117188 C-1.52365234 42.42603516 -2.40472656 42.40089844 -3.3125 42.375 C-4.20517578 42.36146484 -5.09785156 42.34792969 -6.01757812 42.33398438 C-8.22030983 42.29864643 -10.4227312 42.24483969 -12.625 42.1875 C-12.955 46.8075 -13.285 51.4275 -13.625 56.1875 C-15.11 56.6825 -15.11 56.6825 -16.625 57.1875 C-16.625 57.8475 -16.625 58.5075 -16.625 59.1875 C-20.255 59.1875 -23.885 59.1875 -27.625 59.1875 C-27.625 40.0475 -27.625 20.9075 -27.625 1.1875 C-22.015 1.1875 -16.405 1.1875 -10.625 1.1875 C-3.69589552 0.03264925 -3.69589552 0.03264925 0 0 Z M-12.625 15.1875 C-15.08824069 18.88236103 -15.01491688 20.82043092 -14.625 25.1875 C-13.75370693 27.22632095 -13.75370693 27.22632095 -11.625 28.1875 C-7.04446319 29.07405551 -3.14242802 29.64902083 1.375 28.1875 C3.80020546 25.76229454 4.06064441 24.56682259 4.375 21.1875 C3.31100927 17.37486653 2.7498349 16.43738993 -0.625 14.1875 C-5.58861693 11.70569154 -7.78273046 12.24003158 -12.625 15.1875 Z " fill="#030A20" transform="translate(211.625,27.8125)"/>
<path d="M0 0 C5.87552766 0.5165299 11.78931142 0.5 17.6875 0.5 C17.6875 13.7 17.6875 26.9 17.6875 40.5 C12.7375 40.5 7.7875 40.5 2.6875 40.5 C1.2025 40.995 1.2025 40.995 -0.3125 41.5 C-2.99333716 41.64767323 -5.63118052 41.73091588 -8.3125 41.75 C-9.03695312 41.770625 -9.76140625 41.79125 -10.5078125 41.8125 C-15.81457774 41.85166432 -15.81457774 41.85166432 -18.12109375 40.22265625 C-18.51425781 39.65417969 -18.90742188 39.08570313 -19.3125 38.5 C-20.07240234 37.59314453 -20.07240234 37.59314453 -20.84765625 36.66796875 C-25.62556142 30.47257764 -27.99242038 25.5230605 -27.3125 17.5 C-25.43527297 10.35442613 -23.49037535 4.86971671 -17.3125 0.5 C-11.70904163 -1.36781946 -5.80832872 -0.58839799 0 0 Z M-6.3125 11.5 C-8.58394074 13.35432087 -8.58394074 13.35432087 -10.3125 15.5 C-10.9725 15.17 -11.6325 14.84 -12.3125 14.5 C-14.34142674 18.55785349 -14.48135197 21.1168051 -13.3125 25.5 C-12.6525 26.16 -11.9925 26.82 -11.3125 27.5 C-9.9925 27.5 -8.6725 27.5 -7.3125 27.5 C-7.3125 28.49 -7.3125 29.48 -7.3125 30.5 C-5.6625 30.5 -4.0125 30.5 -2.3125 30.5 C-2.3125 29.51 -2.3125 28.52 -2.3125 27.5 C-0.3325 26.84 1.6475 26.18 3.6875 25.5 C4.5125398 21.67481546 5.01562083 19.29439779 3.5 15.625 C1.47706749 13.25328603 0.70964762 12.86632092 -2.3125 12.5 C-2.9725 12.231875 -3.6325 11.96375 -4.3125 11.6875 C-4.9725 11.625625 -5.6325 11.56375 -6.3125 11.5 Z " fill="#030921" transform="translate(258.3125,28.5)"/>
<path d="M0 0 C4.84394592 0.34485924 9.71019992 0.25390625 14.56640625 0.25390625 C14.56640625 13.45390625 14.56640625 26.65390625 14.56640625 40.25390625 C10.93640625 40.25390625 7.30640625 40.25390625 3.56640625 40.25390625 C3.23640625 39.92390625 2.90640625 39.59390625 2.56640625 39.25390625 C2.20933594 39.75277344 1.85226563 40.25164062 1.484375 40.765625 C-2.68191674 43.99853163 -9.48979426 41.87188119 -14.43359375 41.25390625 C-21.57480068 40.29672641 -21.57480068 40.29672641 -24.18359375 37.12890625 C-24.59609375 36.18015625 -25.00859375 35.23140625 -25.43359375 34.25390625 C-25.78292969 33.68671875 -26.13226563 33.11953125 -26.4921875 32.53515625 C-29.84532705 26.87310746 -30.11566467 21.72863746 -29.43359375 15.25390625 C-28.03332459 9.93288343 -26.34584862 7.0510948 -22.43359375 3.25390625 C-21.985 2.73183594 -21.53640625 2.20976562 -21.07421875 1.671875 C-16.00481827 -2.70953542 -6.12797812 -0.63117376 0 0 Z M-12.43359375 14.25390625 C-13.09359375 14.91390625 -13.75359375 15.57390625 -14.43359375 16.25390625 C-15.09359375 16.91390625 -15.75359375 17.57390625 -16.43359375 18.25390625 C-16.76692708 21.25390625 -16.76692708 21.25390625 -16.43359375 24.25390625 C-15.77359375 24.91390625 -15.11359375 25.57390625 -14.43359375 26.25390625 C-13.77359375 26.25390625 -13.11359375 26.25390625 -12.43359375 26.25390625 C-10.0878929 27.22454108 -7.75338756 28.22288678 -5.43359375 29.25390625 C-5.10359375 28.59390625 -4.77359375 27.93390625 -4.43359375 27.25390625 C-3.11359375 27.58390625 -1.79359375 27.91390625 -0.43359375 28.25390625 C1.47185975 25.05274437 2.54426719 22.81845216 2.69140625 19.06640625 C1.76875128 15.90163426 1.76875128 15.90163426 -1.80859375 14.37890625 C-5.81900695 13.13429526 -8.48396314 12.97983186 -12.43359375 14.25390625 Z M-9.43359375 29.25390625 C-5.43359375 30.25390625 -5.43359375 30.25390625 -5.43359375 30.25390625 Z " fill="#030921" transform="translate(163.43359375,28.74609375)"/>
<path d="M0 0 C0.62841797 0.83917969 0.62841797 0.83917969 1.26953125 1.6953125 C1.77613281 2.23929688 2.28273438 2.78328125 2.8046875 3.34375 C6.9367179 8.01474089 9.26953125 11.25190151 9.26953125 17.6953125 C3.98953125 19.0153125 -1.29046875 20.3353125 -6.73046875 21.6953125 C-6.73046875 22.3553125 -6.73046875 23.0153125 -6.73046875 23.6953125 C-8.71046875 24.3553125 -10.69046875 25.0153125 -12.73046875 25.6953125 C-12.40046875 26.3553125 -12.07046875 27.0153125 -11.73046875 27.6953125 C-11.07046875 27.3653125 -10.41046875 27.0353125 -9.73046875 26.6953125 C-9.07046875 26.5715625 -8.41046875 26.4478125 -7.73046875 26.3203125 C-5.35061578 25.80664871 -5.35061578 25.80664871 -3.73046875 22.6953125 C-4.39046875 22.3653125 -5.05046875 22.0353125 -5.73046875 21.6953125 C-3.77150475 22.00383435 -1.81331162 22.3172543 0.14453125 22.6328125 C1.23507812 22.80683594 2.325625 22.98085938 3.44921875 23.16015625 C6.26953125 23.6953125 6.26953125 23.6953125 8.26953125 24.6953125 C7.62879799 30.14154519 4.87453342 33.59704725 1.6171875 37.85546875 C-1.63000836 40.40027616 -4.53270451 40.21848473 -8.48046875 40.0703125 C-9.19549561 40.05379639 -9.91052246 40.03728027 -10.6472168 40.02026367 C-15.67223515 39.85358405 -20.07612499 39.61180699 -24.73046875 37.6953125 C-26.48046875 35.5703125 -26.48046875 35.5703125 -27.73046875 32.6953125 C-28.07980469 32.11652344 -28.42914063 31.53773437 -28.7890625 30.94140625 C-31.90970742 25.596357 -32.70439541 20.82131118 -31.73046875 14.6953125 C-30.01139785 9.66966136 -27.1637713 5.72056377 -23.73046875 1.6953125 C-23.40046875 1.0353125 -23.07046875 0.3753125 -22.73046875 -0.3046875 C-16.6480899 -1.71919421 -5.08237925 -3.83186156 0 0 Z M-13.73046875 9.6953125 C-13.73046875 10.0253125 -13.73046875 10.3553125 -13.73046875 10.6953125 C-11.75046875 10.6953125 -9.77046875 10.6953125 -7.73046875 10.6953125 C-7.73046875 10.3653125 -7.73046875 10.0353125 -7.73046875 9.6953125 C-9.71046875 9.6953125 -11.69046875 9.6953125 -13.73046875 9.6953125 Z M-19.73046875 12.6953125 C-20.06046875 14.0153125 -20.39046875 15.3353125 -20.73046875 16.6953125 C-20.07046875 16.3653125 -19.41046875 16.0353125 -18.73046875 15.6953125 C-19.06046875 14.7053125 -19.39046875 13.7153125 -19.73046875 12.6953125 Z " fill="#030921" transform="translate(329.73046875,30.3046875)"/>
<path d="M0 0 C0.91072266 -0.00708984 1.82144531 -0.01417969 2.75976562 -0.02148438 C9.46533624 0.04275469 9.46533624 0.04275469 11.62451172 1.84790039 C17.53691139 9.0058837 21.45724968 14.30201552 21.2578125 23.875 C20.50316554 29.9121757 17.04481594 35.06519593 12.9375 39.4375 C11.9475 39.7675 10.9575 40.0975 9.9375 40.4375 C9.20789063 40.78167969 8.47828125 41.12585938 7.7265625 41.48046875 C4.16531738 42.70246462 1.0719537 42.73887736 -2.6875 42.75 C-3.99976563 42.76675781 -5.31203125 42.78351563 -6.6640625 42.80078125 C-10.0625 42.4375 -10.0625 42.4375 -11.83203125 41.16015625 C-12.23808594 40.59167969 -12.64414062 40.02320313 -13.0625 39.4375 C-13.56910156 38.82132813 -14.07570313 38.20515625 -14.59765625 37.5703125 C-19.89449842 30.60720029 -22.1860527 25.33116416 -21.0625 16.4375 C-19.52367322 12.00294991 -17.1161004 8.0000338 -14.0625 4.4375 C-13.57910156 3.75042969 -13.09570312 3.06335938 -12.59765625 2.35546875 C-8.65857573 -0.62463685 -4.80155181 -0.10579112 0 0 Z M-2.0625 12.4375 C1.9375 13.4375 1.9375 13.4375 1.9375 13.4375 Z M-1.5625 13.75 C-3.03203125 13.83701172 -3.03203125 13.83701172 -4.53125 13.92578125 C-7.41276145 14.19845217 -7.41276145 14.19845217 -9.0625 17.4375 C-9.43417184 20.19770996 -9.24100636 22.62602476 -9.0625 25.4375 C-8.4025 26.0975 -7.7425 26.7575 -7.0625 27.4375 C-6.4025 27.4375 -5.7425 27.4375 -5.0625 27.4375 C-4.7325 27.7675 -4.4025 28.0975 -4.0625 28.4375 C-1.72956666 28.48070247 0.6045134 28.47772391 2.9375 28.4375 C3.9275 28.4375 4.9175 28.4375 5.9375 28.4375 C7.7886303 27.50756533 7.7886303 27.50756533 8.9375 25.4375 C9.48015629 19.93178511 9.48015629 19.93178511 7.5625 14.9375 C4.95986114 12.53506413 1.85527983 13.52064898 -1.5625 13.75 Z M-3.0625 29.4375 C-3.0625 29.7675 -3.0625 30.0975 -3.0625 30.4375 C-1.0825 30.4375 0.8975 30.4375 2.9375 30.4375 C2.9375 30.1075 2.9375 29.7775 2.9375 29.4375 C0.9575 29.4375 -1.0225 29.4375 -3.0625 29.4375 Z " fill="#030921" transform="translate(363.0625,28.5625)"/>
<path d="M0 0 C5.61 0 11.22 0 17 0 C17.66 1.32 18.32 2.64 19 4 C23.20780855 5.85926424 27.45347674 6.45441721 32 7 C32.61875 5.7934375 32.61875 5.7934375 33.25 4.5625 C35 2 35 2 37.125 1.25 C37.74375 1.1675 38.3625 1.085 39 1 C39.33 0.67 39.66 0.34 40 0 C42.35313555 -0.07271741 44.70833668 -0.08370868 47.0625 -0.0625 C48.35285156 -0.05347656 49.64320312 -0.04445312 50.97265625 -0.03515625 C51.97167969 -0.02355469 52.97070312 -0.01195312 54 0 C54.66666667 1.33333333 55.33333333 2.66666667 56 4 C56.37640625 4.65097656 56.7528125 5.30195312 57.140625 5.97265625 C59.00705836 10.37574223 57.37009264 15.51962942 56.25 20 C55 22 55 22 52.78515625 22.58984375 C49.92044007 23.0117164 47.07279208 23.31916211 44.1875 23.5625 C42.72376953 23.68818359 42.72376953 23.68818359 41.23046875 23.81640625 C40.49441406 23.87699219 39.75835937 23.93757813 39 24 C38.566875 23.030625 38.13375 22.06125 37.6875 21.0625 C36.15507034 18.79102625 35.2092372 18.07565254 32.6015625 17.1328125 C28.42384935 16.46578267 25.35418641 16.09253139 21.73828125 18.515625 C20.69220703 19.46695312 20.69220703 19.46695312 19.625 20.4375 C14.91726993 24.69321976 11.00272877 24.76360628 4.8203125 24.734375 C2 24 2 24 0.2421875 21.640625 C-0.16773438 20.76921875 -0.57765625 19.8978125 -1 19 C-1.66 18.01 -2.32 17.02 -3 16 C-3.63265829 11.03177168 -3.31606169 6.49588445 -1 2 C-0.67 1.34 -0.34 0.68 0 0 Z M26 14 C30 15 30 15 30 15 Z " fill="#030920" transform="translate(40,0)"/>
<path d="M0 0 C2.10241603 -0.13496251 4.2072961 -0.23197307 6.3125 -0.3125 C7.48425781 -0.37050781 8.65601563 -0.42851563 9.86328125 -0.48828125 C11.41595703 -0.24658203 11.41595703 -0.24658203 13 0 C14.7421875 2.4375 14.7421875 2.4375 16 5 C21.18200676 7.41826982 25.66240357 7.50418746 31.1875 6.3125 C34.20065069 5.26217028 34.20065069 5.26217028 35.26953125 2.4453125 C37 0 37 0 40.03125 -0.55859375 C41.1759375 -0.51863281 42.320625 -0.47867188 43.5 -0.4375 C45.21703125 -0.40462891 45.21703125 -0.40462891 46.96875 -0.37109375 C50 0 50 0 53 2 C53.5625 3.8125 53.5625 3.8125 54 6 C54.37125 6.763125 54.7425 7.52625 55.125 8.3125 C56.61481313 12.88835463 55.66397802 16.61168232 53.625 20.875 C52 23 52 23 49 24 C46.67154745 24.19590346 44.33582263 24.31173814 42 24.375 C40.14375 24.44847656 40.14375 24.44847656 38.25 24.5234375 C37.1775 24.35070312 36.105 24.17796875 35 24 C33.3671875 21.53515625 33.3671875 21.53515625 32 19 C27.75337982 17.5676654 23.33353713 17.69439774 19 18.6875 C16.55515129 20.05233514 16.55515129 20.05233514 15 24 C9.39 24 3.78 24 -2 24 C-4.87998874 18.24002252 -5.75379219 14.46674354 -5 8 C-3.92465587 5.59513948 -2.70062578 4.06136458 -1 2 C-0.67 1.34 -0.34 0.68 0 0 Z M24 9 C28 10 28 10 28 10 Z " fill="#040921" transform="translate(5,73)"/>
<path d="M0 0 C3.63 0 7.26 0 11 0 C11 19.47 11 38.94 11 59 C7.37 59 3.74 59 0 59 C0 39.53 0 20.06 0 0 Z " fill="#040923" transform="translate(282,10)"/>
<path d="M0 0 C2.46008778 0.08679142 4.91643517 0.19360955 7.375 0.3125 C8.07367188 0.33505859 8.77234375 0.35761719 9.4921875 0.38085938 C11.5234375 0.48828125 11.5234375 0.48828125 15 1 C18.15830548 5.73745822 19.69907159 10.29091539 19 16 C17.90045358 18.63241162 16.63868853 20.61219671 15 23 C10.32438266 24.55853911 5.86579972 24.83176064 1 24 C-1.94151516 22.1657472 -3.54400883 20.13097289 -5 17 C-6.19485152 11.72442675 -4.74756925 7.54405683 -2 3 C-1.34 2.01 -0.68 1.02 0 0 Z " fill="#040921" transform="translate(79,73)"/>
<path d="M0 0 C5.61 0 11.22 0 17 0 C19.65071454 6.18500059 21.09559892 9.58958079 20 16 C18.0625 19.4375 18.0625 19.4375 16 22 C15.67 22.66 15.34 23.32 15 24 C12.89758397 24.13496251 10.7927039 24.23197307 8.6875 24.3125 C7.51574219 24.37050781 6.34398437 24.42851562 5.13671875 24.48828125 C2 24 2 24 0.20703125 21.66796875 C-0.19128906 20.78753906 -0.58960938 19.90710938 -1 19 C-1.66 18.01 -2.32 17.02 -3 16 C-3.61275157 11.30489059 -3.59470825 7.214196 -1.5 2.9375 C-1.005 2.298125 -0.51 1.65875 0 1 C0 0.67 0 0.34 0 0 Z " fill="#040A22" transform="translate(3,0)"/>
<path d="M0 0 C0.33 0 0.66 0 1 0 C1 19.47 1 38.94 1 59 C0.67 59 0.34 59 0 59 C0 39.53 0 20.06 0 0 Z " fill="#00050B" transform="translate(294,10)"/>
<path d="M0 0 C0.33 0 0.66 0 1 0 C1 18.81 1 37.62 1 57 C0.67 57 0.34 57 0 57 C0 38.19 0 19.38 0 0 Z " fill="#010508" transform="translate(182,30)"/>
<path d="M0 0 C0.33 0 0.66 0 1 0 C1 18.48 1 36.96 1 56 C0.67 56 0.34 56 0 56 C0 37.52 0 19.04 0 0 Z " fill="#010202" transform="translate(280,13)"/>
<path d="M0 0 C0.33 0 0.66 0 1 0 C1 12.87 1 25.74 1 39 C0.67 39 0.34 39 0 39 C0 26.13 0 13.26 0 0 Z " fill="#000504" transform="translate(179,30)"/>
<path d="M0 0 C0.33 0 0.66 0 1 0 C1 12.87 1 25.74 1 39 C0.67 39 0.34 39 0 39 C0 26.13 0 13.26 0 0 Z " fill="#000101" transform="translate(277,30)"/>
<path d="M0 0 C1.06671952 3.20015856 0.94845472 4.88544294 0.5625 8.1875 C0.46066406 9.08855469 0.35882813 9.98960938 0.25390625 10.91796875 C0.17011719 11.60503906 0.08632813 12.29210938 0 13 C-0.33 13 -0.66 13 -1 13 C-1.02696365 11.20841511 -1.04637917 9.41671527 -1.0625 7.625 C-1.07410156 6.62726562 -1.08570313 5.62953125 -1.09765625 4.6015625 C-1 2 -1 2 0 0 Z " fill="#000308" transform="translate(341,42)"/>
<path d="M0 0 C3.63 0 7.26 0 11 0 C11 0.33 11 0.66 11 1 C7.37 1 3.74 1 0 1 C0 0.67 0 0.34 0 0 Z " fill="#000303" transform="translate(247,71)"/>
<path d="M0 0 C3.63 0 7.26 0 11 0 C11 0.33 11 0.66 11 1 C7.37 1 3.74 1 0 1 C0 0.67 0 0.34 0 0 Z " fill="#000503" transform="translate(202,71)"/>
<path d="M0 0 C0.33 0 0.66 0 1 0 C1 3.63 1 7.26 1 11 C0.67 11 0.34 11 0 11 C0 7.37 0 3.74 0 0 Z " fill="#010318" transform="translate(132,44)"/>
<path d="M0 0 C3.63 0 7.26 0 11 0 C11 0.33 11 0.66 11 1 C7.37 1 3.74 1 0 1 C0 0.67 0 0.34 0 0 Z " fill="#01040A" transform="translate(167,27)"/>
<path d="M0 0 C3.3 0 6.6 0 10 0 C10 0.33 10 0.66 10 1 C6.7 1 3.4 1 0 1 C0 0.67 0 0.34 0 0 Z " fill="#000400" transform="translate(150,71)"/>
<path d="M0 0 C3.3 0 6.6 0 10 0 C10 0.33 10 0.66 10 1 C6.7 1 3.4 1 0 1 C0 0.67 0 0.34 0 0 Z " fill="#03060F" transform="translate(283,70)"/>
<path d="M0 0 C3.3 0 6.6 0 10 0 C10 0.33 10 0.66 10 1 C6.7 1 3.4 1 0 1 C0 0.67 0 0.34 0 0 Z " fill="#00050B" transform="translate(265,70)"/>
<path d="M0 0 C3.3 0 6.6 0 10 0 C10 0.33 10 0.66 10 1 C6.7 1 3.4 1 0 1 C0 0.67 0 0.34 0 0 Z " fill="#00020A" transform="translate(167,70)"/>
<path d="M0 0 C2.08954032 4.17908064 2.16552619 4.80410573 1 9 C0.67 9 0.34 9 0 9 C0 6.03 0 3.06 0 0 Z " fill="#00040E" transform="translate(213,45)"/>
<path d="M0 0 C0.33 0 0.66 0 1 0 C1 3.3 1 6.6 1 10 C0.67 10 0.34 10 0 10 C0 6.7 0 3.4 0 0 Z " fill="#000806" transform="translate(296,45)"/>
<path d="M0 0 C3.3 0 6.6 0 10 0 C10 0.33 10 0.66 10 1 C6.7 1 3.4 1 0 1 C0 0.67 0 0.34 0 0 Z " fill="#03060B" transform="translate(265,27)"/>
<path d="M0 0 C3.3 0 6.6 0 10 0 C10 0.33 10 0.66 10 1 C6.7 1 3.4 1 0 1 C0 0.67 0 0.34 0 0 Z " fill="#02050B" transform="translate(185,27)"/>
<path d="M0 0 C2.97 0 5.94 0 9 0 C9 0.33 9 0.66 9 1 C6.03 1 3.06 1 0 1 C0 0.67 0 0.34 0 0 Z " fill="#000304" transform="translate(314,71)"/>
<path d="M0 0 C0.33 0 0.66 0 1 0 C1 2.97 1 5.94 1 9 C0.67 9 0.34 9 0 9 C0 6.03 0 3.06 0 0 Z " fill="#050413" transform="translate(35,7)"/>
<path d="M0 0 C0.33 0 0.66 0 1 0 C1 2.64 1 5.28 1 8 C0.67 8 0.34 8 0 8 C0 5.36 0 2.72 0 0 Z " fill="#010412" transform="translate(72,82)"/>
<path d="M0 0 C2.64 0 5.28 0 8 0 C8 0.33 8 0.66 8 1 C5.36 1 2.72 1 0 1 C0 0.67 0 0.34 0 0 Z " fill="#010318" transform="translate(359,72)"/>
<path d="M0 0 C0.66 0 1.32 0 2 0 C2 1.32 2 2.64 2 4 C1.34 4 0.68 4 0 4 C0 2.68 0 1.36 0 0 Z " fill="#000515" transform="translate(229,53)"/>
<path d="M0 0 C0.33 0 0.66 0 1 0 C1 2.64 1 5.28 1 8 C0.67 8 0.34 8 0 8 C0 5.36 0 2.72 0 0 Z " fill="#00050D" transform="translate(355,46)"/>
<path d="M0 0 C2.31 0 4.62 0 7 0 C7 0.33 7 0.66 7 1 C4.69 1 2.38 1 0 1 C0 0.67 0 0.34 0 0 Z " fill="#000208" transform="translate(82,72)"/>
<path d="M0 0 C2.31 0 4.62 0 7 0 C7 0.33 7 0.66 7 1 C4.69 1 2.38 1 0 1 C0 0.67 0 0.34 0 0 Z " fill="#000208" transform="translate(45,72)"/>
<path d="M0 0 C2.31 0 4.62 0 7 0 C7 0.33 7 0.66 7 1 C4.69 1 2.38 1 0 1 C0 0.67 0 0.34 0 0 Z " fill="#000114" transform="translate(8,72)"/>
<path d="M0 0 C0.33 0 0.66 0 1 0 C1 2.31 1 4.62 1 7 C0.67 7 0.34 7 0 7 C0 4.69 0 2.38 0 0 Z " fill="#010614" transform="translate(370,46)"/>
<path d="M0 0 C0.33 0 0.66 0 1 0 C1 2.31 1 4.62 1 7 C0.67 7 0.34 7 0 7 C0 4.69 0 2.38 0 0 Z " fill="#020618" transform="translate(198,46)"/>
<path d="M0 0 C0.33 0 0.66 0 1 0 C1 2.31 1 4.62 1 7 C0.67 7 0.34 7 0 7 C0 4.69 0 2.38 0 0 Z " fill="#000104" transform="translate(99,45)"/>
<path d="M0 0 C2.31 0 4.62 0 7 0 C7 0.33 7 0.66 7 1 C4.69 1 2.38 1 0 1 C0 0.67 0 0.34 0 0 Z " fill="#020317" transform="translate(82,24)"/>
<path d="M0 0 C2.31 0 4.62 0 7 0 C7 0.33 7 0.66 7 1 C4.69 1 2.38 1 0 1 C0 0.67 0 0.34 0 0 Z " fill="#00030D" transform="translate(45,24)"/>
<path d="M0 0 C2.31 0 4.62 0 7 0 C7 0.33 7 0.66 7 1 C4.69 1 2.38 1 0 1 C0 0.67 0 0.34 0 0 Z " fill="#00040D" transform="translate(8,24)"/>
<path d="M0 0 C0.33 0 0.66 0 1 0 C1 1.98 1 3.96 1 6 C0.67 6 0.34 6 0 6 C0 4.02 0 2.04 0 0 Z " fill="#000404" transform="translate(99,83)"/>
<path d="M0 0 C2.475 0.495 2.475 0.495 5 1 C4.01 1.33 3.02 1.66 2 2 C1.34 1.34 0.68 0.68 0 0 Z " fill="#02030D" transform="translate(327,51)"/>
<path d="M0 0 C0.66 0 1.32 0 2 0 C2 0.99 2 1.98 2 3 C1.34 3 0.68 3 0 3 C0 2.01 0 1.02 0 0 Z " fill="#00030C" transform="translate(229,42)"/>
<path d="M0 0 C0.33 0 0.66 0 1 0 C1 1.98 1 3.96 1 6 C0.67 6 0.34 6 0 6 C0 4.02 0 2.04 0 0 Z " fill="#000201" transform="translate(99,8)"/>
<path d="M0 0 C0.33 0 0.66 0 1 0 C1 1.65 1 3.3 1 5 C0.67 5 0.34 5 0 5 C0 3.35 0 1.7 0 0 Z " fill="#050724" transform="translate(148,47)"/>
<path d="M0 0 C0.33 0 0.66 0 1 0 C1 1.65 1 3.3 1 5 C0.67 5 0.34 5 0 5 C0 3.35 0 1.7 0 0 Z " fill="#01051D" transform="translate(261,47)"/>
<path d="M0 0 C0.99 0.33 1.98 0.66 3 1 C2.67 1.66 2.34 2.32 2 3 C1.34 2.01 0.68 1.02 0 0 Z " fill="#000416" transform="translate(367,43)"/>
<path d="M0 0 C0.99 0.33 1.98 0.66 3 1 C2.67 1.66 2.34 2.32 2 3 C1.34 2.01 0.68 1.02 0 0 Z " fill="#010607" transform="translate(333,34)"/>
<path d="M0 0 C1.65 0 3.3 0 5 0 C5 0.33 5 0.66 5 1 C3.35 1 1.7 1 0 1 C0 0.67 0 0.34 0 0 Z " fill="#030311" transform="translate(316,27)"/>
<path d="M0 0 C1 4 1 4 1 4 Z " fill="#01020B" transform="translate(62,84)"/>
<path d="M0 0 C0.66 0.33 1.32 0.66 2 1 C1.01 1 0.02 1 -1 1 C-0.67 0.67 -0.34 0.34 0 0 Z " fill="#060627" transform="translate(62,53)"/>
<path d="M0 0 C4 1 4 1 4 1 Z " fill="#04080C" transform="translate(361,27)"/>
<path d="M0 0 C1 4 1 4 1 4 Z " fill="#00030F" transform="translate(24,12)"/>
<path d="M0 0 C1 4 1 4 1 4 Z " fill="#00020F" transform="translate(24,7)"/>
<path d="" fill="#06070F" transform="translate(0,0)"/>
<path d="M0 0 C3 1 3 1 3 1 Z " fill="#020309" transform="translate(184,88)"/>
<path d="" fill="#02060B" transform="translate(0,0)"/>
<path d="M0 0 C0.99 0.495 0.99 0.495 2 1 C1.01 1.495 1.01 1.495 0 2 C0 1.34 0 0.68 0 0 Z " fill="#020825" transform="translate(2,75)"/>
<path d="M0 0 C3 1 3 1 3 1 Z " fill="#000508" transform="translate(368,71)"/>
<path d="M0 0 C3 1 3 1 3 1 Z " fill="#000307" transform="translate(355,71)"/>
<path d="M0 0 C3 1 3 1 3 1 Z " fill="#03060C" transform="translate(244,70)"/>
<path d="M0 0 C3 1 3 1 3 1 Z " fill="#03080B" transform="translate(213,70)"/>
<path d="M0 0 C3 1 3 1 3 1 Z " fill="#000615" transform="translate(252,57)"/>
<path d="" fill="#00040A" transform="translate(0,0)"/>
<path d="" fill="#01060A" transform="translate(0,0)"/>
<path d="" fill="#000609" transform="translate(0,0)"/>
<path d="M0 0 C0.33 0.66 0.66 1.32 1 2 C0.34 1.67 -0.32 1.34 -1 1 C-0.67 0.67 -0.34 0.34 0 0 Z " fill="#040619" transform="translate(162,54)"/>
<path d="" fill="#020619" transform="translate(0,0)"/>
<path d="" fill="#040614" transform="translate(0,0)"/>
<path d="M0 0 C3 1 3 1 3 1 Z " fill="#050510" transform="translate(331,50)"/>
<path d="" fill="#020616" transform="translate(0,0)"/>
<path d="" fill="#010708" transform="translate(0,0)"/>
<path d="" fill="#020913" transform="translate(0,0)"/>
<path d="" fill="#04080A" transform="translate(0,0)"/>
<path d="" fill="#000606" transform="translate(0,0)"/>
<path d="" fill="#000404" transform="translate(0,0)"/>
<path d="M0 0 C3 1 3 1 3 1 Z " fill="#000229" transform="translate(252,41)"/>
<path d="M0 0 C3 1 3 1 3 1 Z " fill="#00051B" transform="translate(205,41)"/>
<path d="M0 0 C3 1 3 1 3 1 Z " fill="#00050B" transform="translate(356,28)"/>
<path d="M0 0 C3 1 3 1 3 1 Z " fill="#05090C" transform="translate(255,27)"/>
<path d="M0 0 C3 1 3 1 3 1 Z " fill="#040710" transform="translate(246,27)"/>
<path d="M0 0 C3 1 3 1 3 1 Z " fill="#03060E" transform="translate(211,27)"/>
<path d="M0 0 C3 1 3 1 3 1 Z " fill="#04070D" transform="translate(202,27)"/>
<path d="M0 0 C3 1 3 1 3 1 Z " fill="#04080C" transform="translate(158,27)"/>
<path d="M0 0 C3 1 3 1 3 1 Z " fill="#050711" transform="translate(149,27)"/>
<path d="M0 0 C0.66 0.66 1.32 1.32 2 2 C1.34 2 0.68 2 0 2 C0 1.34 0 0.68 0 0 Z " fill="#07080E" transform="translate(2,20)"/>
<path d="" fill="#000308" transform="translate(0,0)"/>
<path d="M0 0 C3 1 3 1 3 1 Z " fill="#00030C" transform="translate(287,9)"/>
<path d="" fill="#00060D" transform="translate(0,0)"/>
<path d="" fill="#04050E" transform="translate(0,0)"/>
<path d="" fill="#000407" transform="translate(0,0)"/>
<path d="" fill="#00040A" transform="translate(0,0)"/>
<path d="M0 0 C2 1 2 1 2 1 Z " fill="#010410" transform="translate(188,87)"/>
<path d="" fill="#040710" transform="translate(0,0)"/>
<path d="" fill="#030706" transform="translate(0,0)"/>
<path d="" fill="#060715" transform="translate(0,0)"/>
<path d="" fill="#05090D" transform="translate(0,0)"/>
<path d="" fill="#010314" transform="translate(0,0)"/>
<path d="M0 0 C2 1 2 1 2 1 Z " fill="#030417" transform="translate(90,73)"/>
<path d="M0 0 C2 1 2 1 2 1 Z " fill="#02070C" transform="translate(371,70)"/>
<path d="M0 0 C2 1 2 1 2 1 Z " fill="#04080D" transform="translate(324,70)"/>
<path d="M0 0 C2 1 2 1 2 1 Z " fill="#02060A" transform="translate(311,70)"/>
<path d="M0 0 C2 1 2 1 2 1 Z " fill="#01070E" transform="translate(258,70)"/>
<path d="M0 0 C2 1 2 1 2 1 Z " fill="#00080C" transform="translate(200,70)"/>
<path d="M0 0 C2 1 2 1 2 1 Z " fill="#010709" transform="translate(147,70)"/>
<path d="" fill="#03060E" transform="translate(0,0)"/>
<path d="" fill="#00050D" transform="translate(0,0)"/>
<path d="" fill="#00050B" transform="translate(0,0)"/>
<path d="" fill="#05090D" transform="translate(0,0)"/>
<path d="" fill="#02050F" transform="translate(0,0)"/>
<path d="" fill="#010810" transform="translate(0,0)"/>
<path d="" fill="#000413" transform="translate(0,0)"/>
<path d="" fill="#020911" transform="translate(0,0)"/>
<path d="" fill="#020513" transform="translate(0,0)"/>
<path d="" fill="#000707" transform="translate(0,0)"/>
<path d="" fill="#00050F" transform="translate(0,0)"/>
<path d="" fill="#00070D" transform="translate(0,0)"/>
<path d="" fill="#000613" transform="translate(0,0)"/>
<path d="" fill="#000412" transform="translate(0,0)"/>
<path d="" fill="#000400" transform="translate(0,0)"/>
<path d="" fill="#020818" transform="translate(0,0)"/>
<path d="" fill="#000313" transform="translate(0,0)"/>
<path d="" fill="#01050F" transform="translate(0,0)"/>
<path d="" fill="#020618" transform="translate(0,0)"/>
<path d="M0 0 C2 1 2 1 2 1 Z " fill="#04030F" transform="translate(333,53)"/>
<path d="" fill="#00040C" transform="translate(0,0)"/>
<path d="M0 0 C2 1 2 1 2 1 Z " fill="#030614" transform="translate(335,49)"/>
<path d="" fill="#020811" transform="translate(0,0)"/>
<path d="" fill="#020715" transform="translate(0,0)"/>
<path d="" fill="#020818" transform="translate(0,0)"/>
<path d="" fill="#00030C" transform="translate(0,0)"/>
<path d="" fill="#02040F" transform="translate(0,0)"/>
<path d="" fill="#020511" transform="translate(0,0)"/>
<path d="" fill="#020B1F" transform="translate(0,0)"/>
<path d="" fill="#000510" transform="translate(0,0)"/>
<path d="" fill="#00040B" transform="translate(0,0)"/>
<path d="" fill="#00040C" transform="translate(0,0)"/>
<path d="" fill="#00030D" transform="translate(0,0)"/>
<path d="" fill="#00081A" transform="translate(0,0)"/>
<path d="" fill="#000408" transform="translate(0,0)"/>
<path d="" fill="#00040D" transform="translate(0,0)"/>
<path d="" fill="#04091A" transform="translate(0,0)"/>
<path d="" fill="#01040F" transform="translate(0,0)"/>
<path d="" fill="#010612" transform="translate(0,0)"/>
<path d="" fill="#00060E" transform="translate(0,0)"/>
<path d="" fill="#000411" transform="translate(0,0)"/>
<path d="M0 0 C2 1 2 1 2 1 Z " fill="#020120" transform="translate(309,29)"/>
<path d="M0 0 C2 1 2 1 2 1 Z " fill="#00030F" transform="translate(368,28)"/>
<path d="M0 0 C2 1 2 1 2 1 Z " fill="#030906" transform="translate(323,28)"/>
<path d="M0 0 C2 1 2 1 2 1 Z " fill="#000016" transform="translate(312,28)"/>
<path d="M0 0 C2 1 2 1 2 1 Z " fill="#010816" transform="translate(259,28)"/>
<path d="M0 0 C2 1 2 1 2 1 Z " fill="#010815" transform="translate(199,28)"/>
<path d="M0 0 C2 1 2 1 2 1 Z " fill="#000711" transform="translate(162,28)"/>
<path d="M0 0 C2 1 2 1 2 1 Z " fill="#020908" transform="translate(146,28)"/>
<path d="M0 0 C2 1 2 1 2 1 Z " fill="#01031F" transform="translate(90,23)"/>
<path d="" fill="#00050B" transform="translate(0,0)"/>
<path d="" fill="#040612" transform="translate(0,0)"/>
<path d="" fill="#00020E" transform="translate(0,0)"/>
<path d="M0 0 C2 1 2 1 2 1 Z " fill="#000509" transform="translate(291,8)"/>
<path d="" fill="#00040C" transform="translate(0,0)"/>
<path d="M0 0 C2 1 2 1 2 1 Z " fill="#000413" transform="translate(70,6)"/>
<path d="" fill="#030310" transform="translate(0,0)"/>
<path d="" fill="#00040C" transform="translate(0,0)"/>
<path d="" fill="#010411" transform="translate(0,0)"/>
<path d="" fill="#02080F" transform="translate(0,0)"/>
<path d="" fill="#010605" transform="translate(0,0)"/>
<path d="" fill="#02080F" transform="translate(0,0)"/>
<path d="" fill="#04050E" transform="translate(0,0)"/>
<path d="" fill="#010808" transform="translate(0,0)"/>
<path d="" fill="#00040E" transform="translate(0,0)"/>
<path d="" fill="#000609" transform="translate(0,0)"/>
<path d="" fill="#05060F" transform="translate(0,0)"/>
<path d="" fill="#020A05" transform="translate(0,0)"/>
<path d="" fill="#000410" transform="translate(0,0)"/>
<path d="" fill="#040613" transform="translate(0,0)"/>
<path d="" fill="#000408" transform="translate(0,0)"/>
<path d="" fill="#01050D" transform="translate(0,0)"/>
<path d="" fill="#050C07" transform="translate(0,0)"/>
<path d="" fill="#01040F" transform="translate(0,0)"/>
<path d="" fill="#01011F" transform="translate(0,0)"/>
<path d="" fill="#040517" transform="translate(0,0)"/>
<path d="" fill="#01070E" transform="translate(0,0)"/>
<path d="" fill="#030B08" transform="translate(0,0)"/>
<path d="" fill="#03031E" transform="translate(0,0)"/>
<path d="" fill="#05061A" transform="translate(0,0)"/>
<path d="" fill="#030510" transform="translate(0,0)"/>
<path d="" fill="#050718" transform="translate(0,0)"/>
<path d="" fill="#010413" transform="translate(0,0)"/>
<path d="" fill="#02051D" transform="translate(0,0)"/>
<path d="" fill="#040E14" transform="translate(0,0)"/>
<path d="" fill="#03060E" transform="translate(0,0)"/>
<path d="" fill="#040519" transform="translate(0,0)"/>
<path d="" fill="#020715" transform="translate(0,0)"/>
<path d="" fill="#020713" transform="translate(0,0)"/>
<path d="" fill="#020F0A" transform="translate(0,0)"/>
<path d="" fill="#030510" transform="translate(0,0)"/>
<path d="" fill="#010614" transform="translate(0,0)"/>
<path d="" fill="#020713" transform="translate(0,0)"/>
<path d="" fill="#020713" transform="translate(0,0)"/>
<path d="" fill="#050718" transform="translate(0,0)"/>
<path d="" fill="#050716" transform="translate(0,0)"/>
<path d="" fill="#030706" transform="translate(0,0)"/>
<path d="" fill="#020619" transform="translate(0,0)"/>
<path d="" fill="#020711" transform="translate(0,0)"/>
<path d="" fill="#020713" transform="translate(0,0)"/>
<path d="" fill="#010231" transform="translate(0,0)"/>
<path d="" fill="#020713" transform="translate(0,0)"/>
<path d="" fill="#010231" transform="translate(0,0)"/>
<path d="" fill="#010518" transform="translate(0,0)"/>
<path d="" fill="#03070A" transform="translate(0,0)"/>
<path d="" fill="#020713" transform="translate(0,0)"/>
<path d="" fill="#02061B" transform="translate(0,0)"/>
<path d="" fill="#01040F" transform="translate(0,0)"/>
<path d="" fill="#010516" transform="translate(0,0)"/>
<path d="" fill="#040608" transform="translate(0,0)"/>
<path d="" fill="#030912" transform="translate(0,0)"/>
<path d="" fill="#020619" transform="translate(0,0)"/>
<path d="" fill="#01040F" transform="translate(0,0)"/>
<path d="" fill="#00010D" transform="translate(0,0)"/>
<path d="" fill="#010612" transform="translate(0,0)"/>
<path d="" fill="#000506" transform="translate(0,0)"/>
<path d="" fill="#010610" transform="translate(0,0)"/>
<path d="" fill="#050810" transform="translate(0,0)"/>
<path d="" fill="#010610" transform="translate(0,0)"/>
<path d="" fill="#01070E" transform="translate(0,0)"/>
<path d="" fill="#00030C" transform="translate(0,0)"/>
<path d="" fill="#01090D" transform="translate(0,0)"/>
<path d="" fill="#01070C" transform="translate(0,0)"/>
<path d="" fill="#01050D" transform="translate(0,0)"/>
<path d="" fill="#04070D" transform="translate(0,0)"/>
<path d="" fill="#01070E" transform="translate(0,0)"/>
<path d="" fill="#020B0A" transform="translate(0,0)"/>
<path d="" fill="#010610" transform="translate(0,0)"/>
<path d="" fill="#020909" transform="translate(0,0)"/>
<path d="" fill="#010411" transform="translate(0,0)"/>
<path d="" fill="#04070F" transform="translate(0,0)"/>
<path d="" fill="#00050F" transform="translate(0,0)"/>
<path d="" fill="#01070C" transform="translate(0,0)"/>
<path d="" fill="#010614" transform="translate(0,0)"/>
<path d="" fill="#00020B" transform="translate(0,0)"/>
<path d="" fill="#00040E" transform="translate(0,0)"/>
<path d="" fill="#030416" transform="translate(0,0)"/>
<path d="" fill="#000511" transform="translate(0,0)"/>
<path d="" fill="#010612" transform="translate(0,0)"/>
<path d="" fill="#000210" transform="translate(0,0)"/>
<path d="" fill="#040613" transform="translate(0,0)"/>
<path d="" fill="#010516" transform="translate(0,0)"/>
<path d="" fill="#000820" transform="translate(0,0)"/>
<path d="" fill="#00030A" transform="translate(0,0)"/>
<path d="" fill="#05051E" transform="translate(0,0)"/>
<path d="" fill="#00081C" transform="translate(0,0)"/>
<path d="" fill="#00040C" transform="translate(0,0)"/>
<path d="" fill="#010425" transform="translate(0,0)"/>
<path d="" fill="#03071A" transform="translate(0,0)"/>
<path d="" fill="#02080F" transform="translate(0,0)"/>
<path d="" fill="#010813" transform="translate(0,0)"/>
<path d="" fill="#000513" transform="translate(0,0)"/>
<path d="" fill="#050428" transform="translate(0,0)"/>
<path d="" fill="#03041A" transform="translate(0,0)"/>
<path d="" fill="#030514" transform="translate(0,0)"/>
<path d="" fill="#000410" transform="translate(0,0)"/>
<path d="" fill="#000319" transform="translate(0,0)"/>
<path d="" fill="#030512" transform="translate(0,0)"/>
<path d="" fill="#00060D" transform="translate(0,0)"/>
<path d="" fill="#000210" transform="translate(0,0)"/>
<path d="" fill="#020916" transform="translate(0,0)"/>
<path d="" fill="#00050F" transform="translate(0,0)"/>
<path d="" fill="#01050D" transform="translate(0,0)"/>
<path d="" fill="#040711" transform="translate(0,0)"/>
<path d="" fill="#00060B" transform="translate(0,0)"/>
<path d="" fill="#010811" transform="translate(0,0)"/>
<path d="" fill="#060817" transform="translate(0,0)"/>
<path d="" fill="#010609" transform="translate(0,0)"/>
<path d="" fill="#01040F" transform="translate(0,0)"/>
<path d="" fill="#030514" transform="translate(0,0)"/>
<path d="" fill="#00050F" transform="translate(0,0)"/>
<path d="" fill="#010411" transform="translate(0,0)"/>
<path d="" fill="#060817" transform="translate(0,0)"/>
<path d="" fill="#03060C" transform="translate(0,0)"/>
<path d="" fill="#040615" transform="translate(0,0)"/>
<path d="" fill="#050716" transform="translate(0,0)"/>
<path d="" fill="#070714" transform="translate(0,0)"/>
<path d="" fill="#020713" transform="translate(0,0)"/>
<path d="" fill="#04050E" transform="translate(0,0)"/>
<path d="" fill="#040615" transform="translate(0,0)"/>
<path d="" fill="#070714" transform="translate(0,0)"/>
<path d="" fill="#020713" transform="translate(0,0)"/>
<path d="" fill="#040711" transform="translate(0,0)"/>
<path d="" fill="#030512" transform="translate(0,0)"/>
<path d="" fill="#04070F" transform="translate(0,0)"/>
<path d="" fill="#030708" transform="translate(0,0)"/>
<path d="" fill="#030512" transform="translate(0,0)"/>
<path d="" fill="#030512" transform="translate(0,0)"/>
<path d="" fill="#010411" transform="translate(0,0)"/>
<path d="" fill="#03060C" transform="translate(0,0)"/>
<path d="" fill="#010411" transform="translate(0,0)"/>
<path d="" fill="#000413" transform="translate(0,0)"/>
<path d="" fill="#050424" transform="translate(0,0)"/>
<path d="" fill="#030814" transform="translate(0,0)"/>
<path d="" fill="#060915" transform="translate(0,0)"/>
<path d="" fill="#040615" transform="translate(0,0)"/>
<path d="" fill="#020713" transform="translate(0,0)"/>
<path d="" fill="#050714" transform="translate(0,0)"/>
<path d="" fill="#020715" transform="translate(0,0)"/>
<path d="" fill="#020711" transform="translate(0,0)"/>
<path d="" fill="#00020E" transform="translate(0,0)"/>
<path d="" fill="#050810" transform="translate(0,0)"/>
<path d="" fill="#020617" transform="translate(0,0)"/>
<path d="" fill="#030510" transform="translate(0,0)"/>
<path d="" fill="#00020E" transform="translate(0,0)"/>
<path d="" fill="#030912" transform="translate(0,0)"/>
<path d="" fill="#00060D" transform="translate(0,0)"/>
<path d="" fill="#00020A" transform="translate(0,0)"/>
<path d="" fill="#010518" transform="translate(0,0)"/>
<path d="" fill="#020720" transform="translate(0,0)"/>
<path d="" fill="#02020E" transform="translate(0,0)"/>
<path d="" fill="#000310" transform="translate(0,0)"/>
<path d="" fill="#030912" transform="translate(0,0)"/>
<path d="" fill="#050C1C" transform="translate(0,0)"/>
<path d="" fill="#00000E" transform="translate(0,0)"/>
<path d="" fill="#050810" transform="translate(0,0)"/>
<path d="" fill="#050A11" transform="translate(0,0)"/>
<path d="" fill="#050C1C" transform="translate(0,0)"/>
<path d="" fill="#00010F" transform="translate(0,0)"/>
<path d="" fill="#010813" transform="translate(0,0)"/>
<path d="" fill="#070712" transform="translate(0,0)"/>
<path d="" fill="#050C1C" transform="translate(0,0)"/>
<path d="" fill="#020818" transform="translate(0,0)"/>
</svg>
