<svg width="362" height="100" viewBox="0 0 362 100" fill="none" xmlns="http://www.w3.org/2000/svg">
<path d="M57.3476 0H98.4848C99.3216 0 100 0.678356 100 1.51515V64.3829C100 65.8888 98.0415 66.4726 97.217 65.2125L56.0797 2.34476C55.4203 1.33706 56.1433 0 57.3476 0Z" fill="#246DFF"/>
<path d="M42.6524 0H1.51515C0.678356 0 0 0.678356 0 1.51515V64.3829C0 65.8888 1.95849 66.4726 2.783 65.2125L43.9203 2.34476C44.5797 1.33706 43.8567 0 42.6524 0Z" fill="#20A34E"/>
<path d="M49.2952 50.3341L2.56323 97.4175C1.61425 98.3736 2.29149 100 3.63861 100H96.3999C97.7415 100 98.4212 98.385 97.4833 97.4257L51.454 50.3423C50.8628 49.7376 49.891 49.7339 49.2952 50.3341Z" fill="#F86606"/>
<path d="M319.483 13.257H301.997C296.527 13.2571 294.182 15.9921 294.182 20.974V25.7608L319.659 25.7615L334.214 59.3661L348.77 25.7615H361.47L330.991 96H318.486L327.865 74.3131L310.432 36.3112H294.182V75.1918H281.678V36.3112H268.099V25.7608H281.678V18.5323C281.678 8.95877 286.953 3.29266 298.187 3.29266H319.483V13.257Z" fill="#242836"/>
<path fill-rule="evenodd" clip-rule="evenodd" d="M219.964 24.6869C232.859 24.6871 243.409 34.3585 243.409 50.477C243.409 66.6931 232.859 76.2662 219.964 76.2663C209.219 76.2663 203.845 69.6237 202.868 67.6699V95.9024H190.56V25.7615H202.966V33.5768C203.845 31.7207 209.219 24.6869 219.964 24.6869ZM216.74 35.6283C208.241 35.6285 202.771 41.9782 202.771 50.477C202.771 58.878 208.241 65.3255 216.74 65.3257C225.336 65.3257 230.807 58.8781 230.807 50.477C230.807 41.9781 225.337 35.6283 216.74 35.6283Z" fill="#242836"/>
<path fill-rule="evenodd" clip-rule="evenodd" d="M158.129 24.4911C173.466 24.4912 181.965 32.5016 181.965 44.224V60.9292C181.966 63.8597 183.04 65.2271 185.873 65.4225V75.4844H181.965C175.811 75.3867 171.806 73.0421 170.438 68.6461C167.996 72.1629 162.916 76.2662 154.417 76.2663C142.792 76.2663 134 69.6232 134 59.5612C134 49.5971 141.522 44.2241 153.733 44.224H169.95C169.949 38.2652 165.358 34.4556 158.129 34.4555C151.291 34.4555 148.556 38.1673 147.872 39.4373H135.27C136.247 34.1621 142.597 24.4911 158.129 24.4911ZM155.784 52.7229C150.021 52.723 146.309 54.8724 146.309 59.3661C146.309 64.1528 150.803 66.9855 157.055 66.9855C164.088 66.9854 169.95 63.4686 169.95 56.9236V52.7229H155.784Z" fill="#242836"/>
<path d="M262.148 75.1918H249.645V25.7615H262.148V75.1918Z" fill="#242836"/>
<path d="M262.344 17.8487H249.351V3H262.344V17.8487Z" fill="#242836"/>
</svg>
