<svg xmlns:xlink="http://www.w3.org/1999/xlink" xmlns="http://www.w3.org/2000/svg" viewBox="0 0 39 39" fill="none" class="" width="512"  height="512" ><path d="M16.844.15S18.131 0 19.417 0s2.572.15 2.572.15l1.09 4.664c1.453.363 2.822.937 4.073 1.688l4.07-2.528s1.015.804 1.925 1.713a25.37 25.37 0 0 1 1.712 1.926l-2.528 4.068a14.961 14.961 0 0 1 1.689 4.074l4.663 1.09s.15 1.286.15 2.572-.15 2.572-.15 2.572l-4.663 1.09a14.961 14.961 0 0 1-1.689 4.073l2.528 4.07s-.803 1.015-1.712 1.925c-.91.91-1.926 1.712-1.926 1.712l-4.069-2.528a14.961 14.961 0 0 1-4.073 1.689l-1.09 4.663s-1.286.15-2.572.15-2.573-.15-2.573-.15l-1.09-4.663a14.963 14.963 0 0 1-4.072-1.689l-4.07 2.528s-1.015-.803-1.925-1.712c-.91-.91-1.713-1.926-1.713-1.926l2.528-4.069a14.962 14.962 0 0 1-1.688-4.073L.15 21.989S0 20.703 0 19.417s.15-2.573.15-2.573l4.664-1.09a14.962 14.962 0 0 1 1.688-4.072l-2.528-4.07s.804-1.015 1.713-1.925c.91-.91 1.926-1.713 1.926-1.713l4.068 2.528a14.962 14.962 0 0 1 4.074-1.688L16.845.15Z" fill="#D85427" class="i-cogicon__cog"></path><path d="M23.943 21.163a5.037 5.037 0 0 1-1.753 2.073 5.207 5.207 0 0 1-2.779.862 5.094 5.094 0 0 1-1.942-.377 5.272 5.272 0 0 1-2.211-1.83 5.184 5.184 0 0 1-.864-2.774c0-.7.135-1.346.378-1.938a4.947 4.947 0 0 1 1.807-2.18 5.208 5.208 0 0 1 2.779-.862c.7 0 1.348.134 1.942.377a4.952 4.952 0 0 1 2.184 1.803c.135.216.27.431.378.673l5.53-1.426c-.081-.216-.162-.404-.243-.62a10.743 10.743 0 0 0-3.857-4.684 10.544 10.544 0 0 0-5.961-1.831c-1.403.054-2.806.35-4.073.888a10.754 10.754 0 0 0-4.694 3.85 10.496 10.496 0 0 0-1.834 5.95c0 1.454.297 2.854.836 4.146a10.743 10.743 0 0 0 3.857 4.685c1.7 1.158 3.75 1.83 5.961 1.83 1.457 0 2.86-.295 4.154-.834a10.755 10.755 0 0 0 4.694-3.85c.512-.754.917-1.561 1.24-2.45l-5.529-1.48Z" fill="#FFFFFF" class="i-cogicon__c"></path></svg>