<?xml version="1.0" encoding="UTF-8" standalone="no"?>
<svg
   xmlns:dc="http://purl.org/dc/elements/1.1/"
   xmlns:cc="http://creativecommons.org/ns#"
   xmlns:rdf="http://www.w3.org/1999/02/22-rdf-syntax-ns#"
   xmlns:svg="http://www.w3.org/2000/svg"
   xmlns="http://www.w3.org/2000/svg"
   viewBox="0 0 1066.6667 1066.6667"
   height="1066.6667"
   width="1066.6667"
   xml:space="preserve"
   id="svg2"
   version="1.1"><metadata
     id="metadata8"><rdf:RDF><cc:Work
         rdf:about=""><dc:format>image/svg+xml</dc:format><dc:type
           rdf:resource="http://purl.org/dc/dcmitype/StillImage" /></cc:Work></rdf:RDF></metadata><defs
     id="defs6"><clipPath
       id="clipPath18"
       clipPathUnits="userSpaceOnUse"><path
         id="path16"
         d="M 0,800 H 800 V 0 H 0 Z" /></clipPath></defs><g
     transform="matrix(1.3333333,0,0,-1.3333333,0,1066.6667)"
     id="g10"><g
       id="g12"><g
         clip-path="url(#clipPath18)"
         id="g14"><g
           transform="translate(765.8818,403.8096)"
           id="g20"><path
             id="path22"
             style="fill:#2b6aff;fill-opacity:1;fill-rule:nonzero;stroke:none"
             d="m 0,0 c 0,-67.397 0.092,-134.794 -0.055,-202.191 -0.044,-20.372 -1.537,-40.643 -5.706,-60.684 -6.502,-31.258 -23.676,-55.613 -47.877,-75.608 -19.508,-16.119 -42.092,-24.783 -66.994,-27.996 -17.567,-2.268 -35.206,-3.221 -52.906,-3.221 -131.308,-0.001 -262.616,-0.092 -393.924,0.097 -19.459,0.029 -38.868,1.713 -58.011,5.731 -22.266,4.673 -41.44,15.227 -58.236,30.277 -17.944,16.078 -31.654,35.075 -38.996,58.273 -4.196,13.259 -6.254,26.919 -7.381,40.74 -1.759,21.573 -1.692,43.192 -1.688,64.812 0.02,122.996 -0.104,245.991 0.112,368.986 0.04,22.784 2.049,45.494 8.507,67.541 4.591,15.673 12.851,29.409 23.028,42.003 15.213,18.825 33.787,33.298 56.45,42.149 12.89,5.034 26.422,7.468 40.128,8.907 19.66,2.063 39.391,2.284 59.141,2.275 123.442,-0.054 246.884,-0.056 370.326,0.013 14.302,0.007 28.582,-0.091 42.803,-1.741 26.96,-3.128 52.694,-9.925 74.678,-26.743 26.732,-20.451 44.246,-46.91 51.195,-80.128 3.635,-17.379 5.398,-34.913 5.402,-52.642 C 0.008,133.9 0,66.95 0,0" /></g><g
           transform="translate(483.1904,430.4253)"
           id="g24"><path
             id="path26"
             style="fill:#fefefe;fill-opacity:1;fill-rule:nonzero;stroke:none"
             d="m 0,0 c -3.978,-6.231 -7.974,-12.452 -11.931,-18.697 -14.861,-23.459 -29.145,-47.272 -43.659,-70.945 -4.594,-7.494 -10.076,-14.271 -17.257,-19.58 -21.985,-16.256 -44.665,0.242 -47.274,19.371 -1.693,12.417 -3.046,24.809 -3.097,37.329 -0.059,14.48 -10e-4,28.959 -0.029,43.438 -0.004,2.111 -0.206,4.222 -0.316,6.339 -0.994,-0.028 -1.096,-0.765 -1.391,-1.253 -27.386,-45.326 -56.169,-89.779 -84.192,-134.707 -1.702,-2.727 -3.348,-5.492 -5.129,-8.166 -0.824,-1.238 -0.823,-1.996 0.299,-3.156 28.33,-29.289 61.892,-49.061 102.521,-55.315 49.265,-7.583 94.132,3.468 134.192,33.308 4.866,3.624 9.279,7.849 14.083,11.558 5.913,4.563 12.41,7.434 20.168,5.619 1.075,-0.251 2.017,-0.643 2.835,-1.391 1.845,-1.688 3.597,-3.508 5.601,-4.986 5.989,-4.417 6.302,-10.356 4.653,-16.792 -1.968,-7.682 -7.338,-12.977 -13.15,-17.807 -27.229,-22.622 -57.794,-38.709 -92.574,-46.046 -66.611,-14.052 -127.269,-0.676 -180.831,41.444 -40.826,32.106 -66.706,74.131 -78.073,124.882 -5.898,26.334 -6.462,52.867 -2.538,79.59 12.191,83.035 71.404,145.852 137.684,171.083 21.565,8.21 43.792,12.654 66.856,13.419 25.001,0.829 49.55,-1.407 73.487,-9.077 32.354,-10.366 60.851,-27.203 85.302,-50.778 33.349,-32.156 54.275,-71.128 63.077,-116.55 4.295,-22.162 5.283,-44.555 1.742,-66.893 -4.27,-26.94 -26.124,-53.556 -55.641,-59.204 -29.178,-5.584 -56.407,9.498 -68.222,38.009 C 2.115,-63.692 0.732,-50.779 0.679,-37.661 0.63,-25.597 0.67,-13.533 0.667,-1.469 0.667,-1.052 0.63,-0.634 0.61,-0.217 0.407,-0.145 0.203,-0.072 0,0" /></g><g
           transform="translate(399.4062,372.1143)"
           id="g28"><path
             id="path30"
             style="fill:#2b6aff;fill-opacity:1;fill-rule:nonzero;stroke:none"
             d="m 0,0 c 0,6.04 0.005,12.08 0,18.119 -0.026,24.935 0.109,49.87 -0.162,74.802 -0.11,10.083 -2.366,19.731 -9.817,27.292 -6.629,6.726 -16.794,8.624 -25.485,4.904 -6.175,-2.643 -10.97,-6.955 -14.793,-12.396 -8.784,-12.504 -16.161,-25.907 -24.539,-38.662 -26.84,-40.862 -51.753,-82.934 -78.198,-124.041 -2.119,-3.293 -3.881,-3.35 -5.732,0.323 -2.201,4.368 -4.095,8.907 -5.874,13.469 -7.631,19.565 -11.689,39.838 -11.957,60.867 -0.556,43.594 11.629,83.067 39.142,117.114 27.01,33.424 61.669,55.131 104.115,62.931 61.29,11.262 114.461,-5.816 158.794,-49.114 27.572,-26.929 43.618,-60.34 49.979,-98.372 2.357,-14.089 2.974,-28.263 1.478,-42.444 -1.096,-10.374 -5.335,-19.493 -13.612,-26.172 -6.852,-5.528 -14.711,-8.599 -23.411,-5.159 -9.168,3.624 -13.872,11.147 -15.464,20.665 -2.34,13.994 -1.953,28.101 -1.706,42.214 0.212,12.046 1.017,24.217 -1.61,36.057 -3.064,13.81 -11.097,23.628 -25.384,27.165 -6.916,1.711 -13.26,-0.565 -19.265,-3.751 C 67.357,100.962 60.534,93.526 54.655,85.229 44.219,70.501 35.275,54.815 25.701,39.534 17.69,26.748 9.673,13.967 1.656,1.184 1.381,0.744 1.087,0.316 0.803,-0.117 Z" /></g></g></g></g></svg>