<?xml version="1.0" encoding="UTF-8"?>
<svg version="1.1" xmlns="http://www.w3.org/2000/svg" width="48" height="48">
<path d="M0 0 C15.84 0 31.68 0 48 0 C48 15.84 48 31.68 48 48 C32.16 48 16.32 48 0 48 C0 32.16 0 16.32 0 0 Z " fill="#010101" transform="translate(0,0)"/>
<path d="M0 0 C0.59296875 0.22558594 1.1859375 0.45117188 1.796875 0.68359375 C1.796875 1.34359375 1.796875 2.00359375 1.796875 2.68359375 C0.476875 3.67359375 -0.843125 4.66359375 -2.203125 5.68359375 C3.241875 6.17859375 3.241875 6.17859375 8.796875 6.68359375 C8.796875 8.00359375 8.796875 9.32359375 8.796875 10.68359375 C7.146875 10.68359375 5.496875 10.68359375 3.796875 10.68359375 C5.776875 13.32359375 7.756875 15.96359375 9.796875 18.68359375 C8.476875 19.01359375 7.156875 19.34359375 5.796875 19.68359375 C5.136875 19.02359375 4.476875 18.36359375 3.796875 17.68359375 C3.466875 20.65359375 3.136875 23.62359375 2.796875 26.68359375 C1.806875 26.68359375 0.816875 26.68359375 -0.203125 26.68359375 C-0.533125 25.36359375 -0.863125 24.04359375 -1.203125 22.68359375 C-2.853125 24.33359375 -4.503125 25.98359375 -6.203125 27.68359375 C-7.193125 27.35359375 -8.183125 27.02359375 -9.203125 26.68359375 C-8.873125 25.69359375 -8.543125 24.70359375 -8.203125 23.68359375 C-11.173125 23.35359375 -14.143125 23.02359375 -17.203125 22.68359375 C-17.203125 21.36359375 -17.203125 20.04359375 -17.203125 18.68359375 C-15.883125 18.35359375 -14.563125 18.02359375 -13.203125 17.68359375 C-14.853125 15.70359375 -16.503125 13.72359375 -18.203125 11.68359375 C-17.213125 11.02359375 -16.223125 10.36359375 -15.203125 9.68359375 C-14.873125 10.01359375 -14.543125 10.34359375 -14.203125 10.68359375 C-13.873125 8.37359375 -13.543125 6.06359375 -13.203125 3.68359375 C-11.883125 3.68359375 -10.563125 3.68359375 -9.203125 3.68359375 C-8.873125 4.34359375 -8.543125 5.00359375 -8.203125 5.68359375 C-7.81640625 5.23886719 -7.4296875 4.79414063 -7.03125 4.3359375 C-6.51046875 3.77003906 -5.9896875 3.20414063 -5.453125 2.62109375 C-4.94265625 2.05261719 -4.4321875 1.48414063 -3.90625 0.8984375 C-2.203125 -0.31640625 -2.203125 -0.31640625 0 0 Z " fill="#CECECE" transform="translate(28.203125,10.31640625)"/>
<path d="M0 0 C3.96 0 7.92 0 12 0 C12 1.32 12 2.64 12 4 C10.35 4 8.7 4 7 4 C8.98 6.64 10.96 9.28 13 12 C11.68 12.33 10.36 12.66 9 13 C8.34 12.34 7.68 11.68 7 11 C6.67 13.97 6.34 16.94 6 20 C5.01 20 4.02 20 3 20 C2.67 18.68 2.34 17.36 2 16 C0.35 17.65 -1.3 19.3 -3 21 C-3.99 20.67 -4.98 20.34 -6 20 C-4.50902342 16.2047869 -2.24299151 14.38957269 1 12 C1.33 12.33 1.66 12.66 2 13 C3.87543354 9.13236554 3.87543354 9.13236554 3 5 C2.01 4.67 1.02 4.34 0 4 C0 2.68 0 1.36 0 0 Z " fill="#C3C3C3" transform="translate(25,17)"/>
<path d="M0 0 C0.33 1.32 0.66 2.64 1 4 C2.32 4.33 3.64 4.66 5 5 C5.33 6.32 5.66 7.64 6 9 C5.34 9 4.68 9 4 9 C4 10.65 4 12.3 4 14 C3.01 13.67 2.02 13.34 1 13 C0.01 13.66 -0.98 14.32 -2 15 C-2 14.01 -2 13.02 -2 12 C-3.65 12 -5.3 12 -7 12 C-6.67 11.01 -6.34 10.02 -6 9 C-6.66 8.01 -7.32 7.02 -8 6 C-7.01 6 -6.02 6 -5 6 C-4.9175 5.38125 -4.835 4.7625 -4.75 4.125 C-4 2 -4 2 -1.9375 0.75 C-1.298125 0.5025 -0.65875 0.255 0 0 Z " fill="#0A0A0A" transform="translate(24,17)"/>
<path d="M0 0 C2.1875 0.3125 2.1875 0.3125 4 1 C4 3 4 3 2.3203125 4.7265625 C1.59585937 5.35304688 0.87140625 5.97953125 0.125 6.625 C-0.59429687 7.25664062 -1.31359375 7.88828125 -2.0546875 8.5390625 C-4 10 -4 10 -6 10 C-6.33 10.66 -6.66 11.32 -7 12 C-7.99 12 -8.98 12 -10 12 C-10 9.69 -10 7.38 -10 5 C-9.401875 5.226875 -8.80375 5.45375 -8.1875 5.6875 C-7.1046875 5.8421875 -7.1046875 5.8421875 -6 6 C-4.35444301 4.77190909 -4.35444301 4.77190909 -3 3 C-1.5625 1.25 -1.5625 1.25 0 0 Z " fill="#DCDCDC" transform="translate(26,10)"/>
<path d="M0 0 C0.99 0 1.98 0 3 0 C3 3.3 3 6.6 3 10 C2.01 10 1.02 10 0 10 C-0.33 8.68 -0.66 7.36 -1 6 C-2.65 7.65 -4.3 9.3 -6 11 C-6.99 10.67 -7.98 10.34 -9 10 C-7.50902342 6.2047869 -5.24299151 4.38957269 -2 2 C-1.67 2.33 -1.34 2.66 -1 3 C-0.67 2.01 -0.34 1.02 0 0 Z " fill="#E9E9E9" transform="translate(28,27)"/>
<path d="M0 0 C3.63 0 7.26 0 11 0 C11 0.99 11 1.98 11 3 C7.37 3 3.74 3 0 3 C0 2.01 0 1.02 0 0 Z " fill="#FDFDFD" transform="translate(25,17)"/>
<path d="M0 0 C0.99 0 1.98 0 3 0 C3 3.3 3 6.6 3 10 C2.01 10 1.02 10 0 10 C0 6.7 0 3.4 0 0 Z " fill="#FDFDFD" transform="translate(28,27)"/>
<path d="M0 0 C0.99 0 1.98 0 3 0 C3 2.31 3 4.62 3 7 C2.01 7 1.02 7 0 7 C0 4.69 0 2.38 0 0 Z " fill="#FAFAFA" transform="translate(16,15)"/>
</svg>
