<?xml version="1.0" encoding="utf-8"?>
<!-- Generator: Adobe Illustrator 26.0.3, SVG Export Plug-In . SVG Version: 6.00 Build 0)  -->
<svg version="1.1" id="Layer_1" xmlns="http://www.w3.org/2000/svg" xmlns:xlink="http://www.w3.org/1999/xlink" x="0px" y="0px"
	 viewBox="0 0 89 27" style="enable-background:new 0 0 89 27;" xml:space="preserve">
<style type="text/css">
	.st0{fill:#33475B;}
	.st1{fill:#FF7A59;}
</style>
<g id="Symbols">
	<g id="Top-Navbar---Signed-In" transform="translate(-180.000000, -82.000000)">
		<g id="web-color-Community-One-Line" transform="translate(180.000000, 82.000000)">
			<g id="Color_Logo">
				<polygon id="Path_00000093878356117034055650000000156313753690592936_" class="st0" points="9.6,14.7 3.1,14.7 3.1,21.8 
					0,21.8 0,4.4 3.1,4.4 3.1,11.7 9.6,11.7 9.6,4.4 12.7,4.4 12.7,21.8 9.6,21.8 				"/>
				<path id="Path_00000061440886042933543300000000756299364077377943_" class="st0" d="M22.7,16.2c0,1.5-1.1,2.6-2.6,2.6
					s-2.6-1.2-2.6-2.6V8.7h-2.9v7.5c0.2,3,2.6,5.3,5.5,5.3s5.3-2.3,5.5-5.3V8.7h-2.9V16.2z"/>
				<path id="Path_00000128476460353731092280000002425396224963692712_" class="st0" d="M44.5,9.5c0-1.5,1-2,2.1-2
					c0.9,0,2,0.7,2.8,1.5l1.9-2.3c-1-1.3-2.9-2.3-4.5-2.3c-3.2,0-5.5,1.9-5.5,5.1c0,5.9,7,4.1,7,7.3c0,1-1,1.9-2.1,1.9
					c-1.7,0-2.3-0.9-3.1-1.8L41,19.2c1.4,1.7,3.1,2.6,5.1,2.6c3,0,5.5-1.9,5.5-5C51.5,10.3,44.5,12.3,44.5,9.5z"/>
				<path id="Path_00000130608751547935639980000012431708635411920294_" class="st0" d="M88,19c-1.7,0-2.2-0.8-2.2-2v-5.2h2.7V9.2
					h-2.7V5.7l-3,1.4v10.7c0,2.7,1.8,4.1,4.3,4.1c0.4,0,0.8,0,1.2-0.1L89,19C88.7,19,88.3,19,88,19z"/>
				<path id="Shape_00000017482842401436112440000001680052521719531429_" class="st0" d="M33.9,8.8c-1.3-0.1-2.6,0.5-3.5,1.4V4.5
					h-2.9v10.7c0,4,2.8,6.7,6,6.7c3.5,0,6.6-2.8,6.6-6.5C40,11.6,37.2,8.8,33.9,8.8z M33.9,18.8c-1.8,0-3.3-1.5-3.3-3.4
					s1.5-3.4,3.3-3.4c1.8,0,3.3,1.5,3.3,3.4c0,0.9-0.4,1.8-1,2.4C35.6,18.4,34.7,18.8,33.9,18.8L33.9,18.8z"/>
				<path id="Shape_00000026871466330037743790000010025473051543572143_" class="st0" d="M65.9,15.2c0-3.7-3.1-6.5-6.6-6.5
					c-3.2,0-6,2.7-6,6.7V26h2.9v-5.7c0.9,1,2.2,1.5,3.5,1.4C63,21.7,65.9,18.9,65.9,15.2z M63.1,15.1c0,1.4-0.8,2.6-2.1,3.2
					s-2.7,0.2-3.6-0.7c-1-1-1.2-2.5-0.7-3.8c0.5-1.3,1.7-2.1,3.1-2.1c0.9,0,1.7,0.4,2.4,1S63.1,14.2,63.1,15.1L63.1,15.1z"/>
				<path id="Shape_00000082352260220019025780000018216195652692055451_" class="st1" d="M75.4,8.5v-3c0.8-0.4,1.3-1.2,1.3-2.1V3.3
					c0-1.3-1-2.3-2.3-2.3h-0.1c-1.3,0-2.3,1.1-2.3,2.3v0.1c0,0.9,0.5,1.7,1.3,2.1v3c-1.1,0.2-2.2,0.7-3.1,1.4l-8.1-6.5
					c0.1-0.2,0.1-0.4,0.1-0.7c0-1.2-0.8-2.3-1.9-2.6c-1.1-0.3-2.3,0.2-2.9,1.2S57,3.7,57.8,4.5S60,5.6,61,5l8,6.4
					c-1.5,2.3-1.4,5.3,0.1,7.5l-2.4,2.5c-0.2-0.1-0.4-0.1-0.6-0.1c-1.2,0-2.1,1-2.1,2.2s0.9,2.2,2.1,2.2s2.1-1,2.1-2.2
					c0-0.2,0-0.4-0.1-0.6l2.4-2.5c2.2,1.7,5.1,1.8,7.4,0.4s3.5-4.3,2.9-7C80.2,11,78.1,8.9,75.4,8.5L75.4,8.5z M74.4,18.5
					c-1.8,0-3.3-1.5-3.3-3.4s1.5-3.4,3.3-3.4c1.8,0,3.3,1.5,3.3,3.4S76.2,18.5,74.4,18.5L74.4,18.5z"/>
			</g>
		</g>
	</g>
</g>
</svg>
