<?xml version="1.0" standalone="no"?>
<!DOCTYPE svg PUBLIC "-//W3C//DTD SVG 20010904//EN"
 "http://www.w3.org/TR/2001/REC-SVG-20010904/DTD/svg10.dtd">
<svg version="1.0" xmlns="http://www.w3.org/2000/svg"
 width="231.000000pt" height="62.000000pt" viewBox="0 0 231.000000 62.000000"
 preserveAspectRatio="xMidYMid meet">

<g transform="translate(0.000000,62.000000) scale(0.100000,-0.100000)"
fill="#000000" stroke="none">
<path d="M420 305 c0 -188 1 -195 20 -195 18 0 20 7 20 80 l0 80 35 0 c44 0
55 -20 55 -99 0 -57 2 -61 23 -61 21 0 22 2 17 81 -4 59 -9 84 -21 93 -15 11
-15 13 2 35 30 36 26 125 -6 156 -20 21 -34 25 -85 25 l-60 0 0 -195z m120
135 c6 -12 10 -40 8 -63 -2 -32 -9 -44 -29 -56 -46 -26 -59 -10 -59 69 l0 70
35 0 c24 0 37 -6 45 -20z"/>
<path d="M1068 489 c-22 -12 -39 -73 -31 -111 4 -18 29 -53 65 -88 54 -54 59
-62 56 -96 -6 -69 -62 -72 -83 -6 -6 22 -15 32 -28 32 -17 0 -19 -5 -14 -37 8
-46 46 -83 86 -83 63 0 108 76 81 139 -6 16 -36 52 -66 81 -44 42 -54 58 -54
85 0 63 67 77 84 18 9 -32 29 -43 41 -23 10 16 -15 79 -35 90 -24 13 -80 12
-102 -1z"/>
<path d="M1278 490 c-23 -14 -41 -74 -33 -111 4 -19 30 -54 66 -89 50 -49 59
-64 59 -94 0 -34 -19 -56 -49 -56 -18 0 -41 31 -41 56 0 17 -5 24 -20 24 -32
0 -27 -55 9 -91 47 -47 112 -34 137 28 23 55 7 98 -62 161 -52 48 -55 53 -52
94 3 42 4 43 38 43 31 0 35 -3 40 -30 4 -22 11 -30 25 -30 16 0 19 6 17 30 -7
61 -79 96 -134 65z"/>
<path d="M1454 486 c-3 -8 -4 -88 -2 -176 l3 -162 28 -24 c36 -31 78 -31 114
0 l28 24 3 176 c3 172 3 176 -17 176 -20 0 -21 -5 -21 -158 0 -167 -9 -202
-49 -202 -35 0 -40 23 -43 191 -3 147 -5 164 -21 167 -9 2 -20 -3 -23 -12z"/>
<path d="M1670 305 c0 -187 1 -195 20 -195 18 0 20 8 22 138 l3 137 29 -137
c27 -127 31 -138 52 -138 20 0 24 9 44 123 12 67 26 129 31 137 5 9 9 -42 9
-122 0 -131 1 -138 20 -138 19 0 20 7 20 195 l0 195 -30 0 c-34 0 -28 14 -65
-169 -14 -69 -27 -126 -28 -128 -2 -2 -16 59 -32 134 -15 76 -30 144 -33 151
-2 6 -17 12 -33 12 l-29 0 0 -195z"/>
</g>
</svg>
