<svg xmlns:xlink="http://www.w3.org/1999/xlink" xmlns="http://www.w3.org/2000/svg" width="100" height="24" viewBox="0 0 100 24" fill="none" class="cursor-pointer"><path d="M22.561 8.839C24.3222 8.855 25.7122 10.2783 25.6873 12.0389C25.6623 13.8001 24.2268 15.1895 22.4726 15.1505C20.7383 15.1121 19.3783 13.7195 19.3828 11.9871C19.3873 10.2271 20.8042 8.823 22.561 8.839Z" fill="#C74AE3"></path><path d="M26.6574 18.7319C23.9061 20.9475 18.9898 20.1546 16.4433 17.1729C13.6421 13.893 13.9692 8.97221 17.1819 6.05838C20.3555 3.18039 25.2654 3.33911 28.2586 6.41677C31.1641 9.40419 31.2928 14.3608 28.5735 17.1582C27.9386 16.4932 27.3031 15.827 26.6369 15.1294C27.6679 13.6882 27.9873 12.039 27.371 10.2682C26.4507 7.62441 23.5356 6.22926 20.8771 7.13035C18.25 8.02056 16.812 10.8486 17.6324 13.5109C18.4618 16.2027 21.2752 17.7316 23.9753 16.9022C24.5128 16.7371 24.8111 16.8337 25.1586 17.2337C25.6181 17.7636 26.1499 18.2308 26.6574 18.7319ZM1 8.85125C1 8.21255 1.12224 7.61225 1.36607 7.05227C1.6099 6.49229 1.94205 6.00206 2.36252 5.58224C2.78298 5.16241 3.27257 4.83026 3.83255 4.58643C4.39253 4.3426 4.99219 4.22036 5.63153 4.22036H12.7187V7.31146H5.63153C5.41586 7.31146 5.2149 7.35114 5.02803 7.42986C4.84115 7.50922 4.67796 7.61865 4.5378 7.75817C4.39765 7.89832 4.28821 8.06152 4.2095 8.24839C4.13014 8.43527 4.0911 8.63622 4.0911 8.85189C4.0911 9.06756 4.13014 9.27044 4.2095 9.46051C4.28821 9.65059 4.39829 9.8157 4.5378 9.95586C4.67796 10.096 4.84115 10.2054 5.02803 10.2842C5.2149 10.3635 5.41586 10.4026 5.63153 10.4026H8.72263C9.36197 10.4026 9.96291 10.5229 10.5267 10.7635C11.0906 11.0041 11.5821 11.3344 12.0025 11.7542C12.423 12.174 12.7526 12.6662 12.9932 13.23C13.2338 13.7938 13.3542 14.3954 13.3542 15.0341C13.3542 15.6734 13.2338 16.2731 12.9932 16.8331C12.7526 17.3931 12.4223 17.8833 12.0025 18.3031C11.5827 18.7229 11.0906 19.0551 10.5267 19.2996C9.96291 19.544 9.36133 19.6656 8.72263 19.6656H1.86141V16.5745H8.72263C8.9383 16.5745 9.13862 16.5348 9.32613 16.4561C9.513 16.3774 9.6762 16.2673 9.81635 16.1278C9.95651 15.9883 10.0659 15.8245 10.1447 15.6376C10.2234 15.4507 10.2631 15.2498 10.2631 15.0341C10.2631 14.8184 10.2234 14.6175 10.1447 14.4306C10.0653 14.2437 9.95587 14.0805 9.81635 13.9404C9.6762 13.8002 9.513 13.6908 9.32613 13.6121C9.13926 13.5333 8.9383 13.4937 8.72263 13.4937H5.63153C4.99219 13.4937 4.39253 13.3714 3.83255 13.1276C3.27257 12.8838 2.78234 12.5516 2.36252 12.1311C1.94269 11.7113 1.6099 11.2192 1.36607 10.656C1.12224 10.0922 1 9.49059 1 8.85125ZM43.3525 19.6656H32.5382V4.21972H35.6293V16.5745H43.3519V19.6656H43.3525ZM43.7404 8.85125C43.7404 8.21255 43.8626 7.61225 44.1064 7.05227C44.3503 6.49229 44.6824 6.00206 45.1029 5.58224C45.5233 5.16241 46.0129 4.83026 46.5729 4.58579C47.1329 4.34196 47.7326 4.21972 48.3719 4.21972H55.459V7.31082H48.3719C48.1562 7.31082 47.9553 7.3505 47.7684 7.42922C47.5815 7.50858 47.4183 7.61801 47.2782 7.75753C47.138 7.89768 47.0286 8.06088 46.9499 8.24775C46.8705 8.43463 46.8315 8.63558 46.8315 8.85125C46.8315 9.06693 46.8705 9.2698 46.9499 9.45987C47.0286 9.64995 47.1387 9.81506 47.2782 9.95522C47.4183 10.0954 47.5815 10.2048 47.7684 10.2835C47.9553 10.3629 48.1562 10.4019 48.3719 10.4019H51.463C52.1023 10.4019 52.7033 10.5222 53.2671 10.7629C53.8309 11.0035 54.3224 11.3337 54.7429 11.7536C55.1634 12.1734 55.4929 12.6655 55.7336 13.2294C55.9742 13.7932 56.0945 14.3948 56.0945 15.0335C56.0945 15.6728 55.9742 16.2725 55.7336 16.8324C55.4929 17.3924 55.1627 17.8826 54.7429 18.3025C54.3231 18.7223 53.8309 19.0544 53.2671 19.2989C52.7033 19.5434 52.1017 19.665 51.463 19.665H44.6018V16.5739H51.463C51.6787 16.5739 51.8796 16.5342 52.0665 16.4555C52.2534 16.3768 52.4166 16.2667 52.5567 16.1272C52.6969 15.987 52.8063 15.8238 52.885 15.637C52.9637 15.4501 53.0034 15.2491 53.0034 15.0335C53.0034 14.8178 52.9637 14.6168 52.885 14.43C52.8057 14.2431 52.6962 14.0799 52.5567 13.9397C52.4166 13.7996 52.2534 13.6901 52.0665 13.6114C51.8796 13.5327 51.6787 13.493 51.463 13.493H48.3719C47.7326 13.493 47.1329 13.3708 46.5729 13.127C46.0129 12.8831 45.5227 12.551 45.1029 12.1305C44.6831 11.7107 44.3503 11.2185 44.1064 10.6547C43.862 10.0922 43.7404 9.49059 43.7404 8.85125ZM70.4525 18.0823C69.7344 18.6999 68.93 19.1741 68.0397 19.5043C67.1495 19.8346 66.2267 19.9997 65.2718 19.9997C64.5397 19.9997 63.8338 19.9043 63.1554 19.7143C62.477 19.5242 61.8415 19.2548 61.2489 18.9066C60.6563 18.5585 60.1162 18.1399 59.6279 17.6516C59.1395 17.1633 58.721 16.6232 58.3729 16.0305C58.0247 15.4379 57.7553 14.8024 57.5652 14.124C57.3751 13.4457 57.2798 12.7398 57.2798 12.0076C57.2798 11.2755 57.3751 10.5677 57.5652 9.88546C57.7553 9.20324 58.0247 8.56582 58.3729 7.97384C58.721 7.38122 59.1389 6.84108 59.6279 6.35277C60.1162 5.86447 60.6563 5.44656 61.2489 5.09777C61.8415 4.74962 62.477 4.48019 63.1554 4.29012C63.8338 4.10004 64.5397 4.00469 65.2718 4.00469C66.2267 4.00469 67.1495 4.16788 68.0397 4.49491C68.93 4.82194 69.7344 5.29745 70.4525 5.92207L68.8154 8.6151C68.3629 8.1268 67.8279 7.75177 67.2103 7.48938C66.5927 7.22762 65.9464 7.09643 65.2718 7.09643C64.5896 7.09643 63.9503 7.2257 63.3545 7.48426C62.758 7.74281 62.2377 8.09288 61.7929 8.53446C61.3475 8.97605 60.9961 9.49699 60.7376 10.096C60.479 10.6957 60.3497 11.3331 60.3497 12.0076C60.3497 12.6828 60.479 13.3164 60.7376 13.909C60.9961 14.5016 61.3475 15.02 61.7929 15.4654C62.2383 15.9109 62.7586 16.2622 63.3545 16.5208C63.9503 16.7793 64.5896 16.9086 65.2718 16.9086C65.9464 16.9086 66.5927 16.7774 67.2103 16.5156C67.8279 16.2539 68.3629 15.8782 68.8154 15.3899L70.4525 18.0823ZM84.4226 19.6656H81.3315V16.5745H75.1486V19.6656H72.0678V10.4026C72.0678 9.54819 72.229 8.74566 72.5522 7.99496C72.8754 7.2449 73.3151 6.58957 73.8719 6.02894C74.428 5.46896 75.0821 5.02738 75.8321 4.70419C76.5822 4.381 77.3847 4.21972 78.2397 4.21972C79.0941 4.21972 79.8966 4.381 80.6473 4.70419C81.3974 5.02738 82.0527 5.46896 82.6133 6.02894C83.1733 6.58892 83.6149 7.24426 83.9381 7.99496C84.2613 8.74566 84.4226 9.54819 84.4226 10.4026V19.6656ZM81.3315 13.4937V10.4026C81.3315 9.9789 81.2508 9.57827 81.0889 9.20132C80.9276 8.82437 80.7068 8.49606 80.4265 8.21575C80.1462 7.93544 79.8179 7.71465 79.441 7.55337C79.064 7.3921 78.6634 7.31082 78.2397 7.31082C77.8161 7.31082 77.4154 7.39146 77.0385 7.55337C76.6615 7.71465 76.3332 7.93544 76.0529 8.21575C75.7726 8.49606 75.5518 8.82437 75.3905 9.20132C75.2293 9.57827 75.148 9.9789 75.148 10.4026V13.4937H81.3315ZM99.4595 19.6656H96.1527L90.1965 9.49763V19.6656H87.1054V4.21972H90.4121L96.3684 14.3986V4.21972H99.4595V19.6656Z" fill="#00E8B4"></path></svg>